<svg width="178" height="38" viewBox="0 0 178 38" fill="none" xmlns="http://www.w3.org/2000/svg">
<path d="M51.1684 12.5179C48.2301 12.5179 45.683 16.5102 45.2964 21.1418C45.0554 24.0299 46.2425 25.8807 48.0255 25.8807C51.0001 25.8807 53.5381 21.9599 53.9384 17.2568C54.1658 14.3911 52.9832 12.5179 51.1684 12.5179Z" fill="white"/>
<path d="M66.4967 0H11.0062C9.60207 0.0483831 8.25533 0.559749 7.18278 1.45179C6.11022 2.34383 5.37423 3.56465 5.09328 4.91775L0.0809419 32.3364C-0.414834 35.0546 1.41817 37.2542 4.1745 37.2542H59.665C61.0691 37.2058 62.4158 36.6944 63.4884 35.8024C64.561 34.9103 65.297 33.6895 65.5779 32.3364L70.5811 4.91775C71.0951 2.20404 69.2576 0 66.4967 0ZM15.5546 30.7851H12.4753C11.3883 30.7851 10.8925 30.1771 11.1699 29.0728L15.1998 12.12H11.4974C10.4104 12.12 9.91458 11.512 10.2284 10.4077L10.6833 8.6597C10.7802 8.16721 11.052 7.72461 11.4503 7.41095C11.8485 7.09729 12.3473 6.93301 12.8574 6.94743H21.4311C22.5546 6.94743 23.014 7.55545 22.7001 8.6597L17.7651 29.0594C17.6685 29.5598 17.392 30.0094 16.9862 30.3262C16.5805 30.643 16.0724 30.8058 15.5546 30.7851ZM60.4928 16.7785C59.8014 25.0492 53.9158 31.2143 46.702 31.2143C43.7501 31.2143 41.4532 30.0072 40.0841 27.9328C41.3182 25.7349 42.138 23.3358 42.5039 20.8512C41.8506 22.9353 40.7805 24.8702 39.3564 26.5424C38.1657 27.984 36.6664 29.15 34.9652 29.9575C33.264 30.765 31.4027 31.1941 29.5136 31.2143C24.2557 31.2143 21.0582 27.4008 21.5403 21.6247C22.2317 13.3539 28.1537 7.18885 35.331 7.18885C38.3057 7.18885 40.6072 8.38252 41.9672 10.4569C40.7228 12.6599 39.8967 15.0671 39.5292 17.5608C41.4941 11.4136 46.5701 7.18885 52.5149 7.18885C57.8138 7.18885 60.9795 10.9666 60.4928 16.7785Z" fill="white"/>
<path d="M33.9853 12.5179C31.047 12.5179 28.4999 16.5102 28.1133 21.1418C27.8722 24.0299 29.0594 25.8807 30.8423 25.8807C33.817 25.8807 36.355 21.9599 36.7552 17.2568C36.9827 14.3911 35.7955 12.5179 33.9853 12.5179Z" fill="white"/>
<path d="M71.7547 34.5112L77.4697 3.04234C77.5765 2.27377 77.9712 1.5732 78.5755 1.08C79.1797 0.586794 79.9491 0.337106 80.7306 0.380599H94.5616C102.909 0.380599 107.129 4.6289 107.129 10.7457C107.129 19.2685 101.302 25.0247 90.3812 25.0247H83.8064L82.0932 34.544C81.99 35.3032 81.6046 35.9969 81.0125 36.4893C80.4203 36.9816 79.6641 37.2371 78.8918 37.2058H74.0368C72.3368 37.173 71.4108 36.2092 71.7547 34.5112ZM91.4197 17.1771C94.1647 17.1771 96.3938 15.5316 96.3938 12.306C96.4182 11.8184 96.3382 11.3313 96.1592 10.8765C95.9802 10.4217 95.7062 10.0096 95.3551 9.66725C95.0041 9.32487 94.5839 9.05995 94.1223 8.8899C93.6606 8.71984 93.1679 8.64848 92.6764 8.68052H86.7234L85.1822 17.2033L91.4197 17.1771Z" fill="white"/>
<path d="M137.312 37.173H131.312C129.539 37.173 129.367 36.3207 128.971 34.4522L128.309 31.2791H114.736L112.904 34.4522C111.872 36.2092 111.416 37.173 109.531 37.173H102.962C101.19 37.173 100.317 36.1502 101.474 34.4522L122.224 2.66208C122.682 1.84633 123.355 1.16842 124.169 0.699923C124.984 0.231425 125.912 -0.0102774 126.854 0.000335007H127.423C128.911 0.000335007 130.108 0.905066 130.624 2.66208L139.805 34.4522C140.281 36.1502 139.084 37.173 137.312 37.173ZM126.966 24.3691L124.85 13.8073L118.731 24.3428L126.966 24.3691Z" fill="white"/>
<path d="M177.435 2.83907L161.633 23.7987L159.649 34.4522C159.572 35.238 159.187 35.9626 158.578 36.4711C157.968 36.9796 157.182 37.2315 156.388 37.1729H151.414C149.641 37.1729 148.9 36.2092 149.185 34.4522L151.13 23.6872L142.531 2.83907C141.869 1.14107 143.192 0.347787 145.044 0.347787H150.018C152.188 0.347787 153.107 1.53443 153.676 3.06853L157.903 14.2859L165.84 3.06853C167.269 1.10173 168.757 0.347787 170.47 0.347787H175.762C177.607 0.347787 178.745 1.08206 177.435 2.83907Z" fill="white"/>
</svg>
