<?xml version="1.0" encoding="UTF-8"?>
<!-- Generator: visioncortex VTracer 0.6.3 -->
<svg version="1.1" xmlns="http://www.w3.org/2000/svg" width="1280" height="209">
<path d="M0 0 C111.54 0 223.08 0 338 0 C338.33 0.99 338.66 1.98 339 3 C339.99 3.66 340.98 4.32 342 5 C342.14 5.83 342.29 6.65 342.44 7.5 C342.62 8.32 342.81 9.15 343 10 C344.99 11.18 344.99 11.18 347 12 C347.09 15.65 347.14 19.29 347.19 22.94 C347.23 24.47 347.23 24.47 347.26 26.03 C347.33 32.6 346.55 37.93 344 44 C343.34 44 342.68 44 342 44 C342.02 44.6 342.03 45.21 342.05 45.83 C342.11 48.6 342.15 51.36 342.19 54.12 C342.23 55.55 342.23 55.55 342.26 57.01 C342.32 62.42 342.14 66.36 339 71 C338.34 71.33 337.68 71.66 337 72 C336.99 72.69 336.97 73.37 336.96 74.08 C336.88 77.22 336.78 80.36 336.69 83.5 C336.66 84.58 336.64 85.66 336.62 86.77 C336.4 93.17 335.65 98.15 333 104 C332.34 104 331.68 104 331 104 C331.02 104.56 331.03 105.13 331.05 105.71 C331.11 108.31 331.15 110.9 331.19 113.5 C331.23 114.83 331.23 114.83 331.26 116.19 C331.33 122.18 330.44 126.52 328 132 C327.01 132 326.02 132 325 132 C325.02 132.68 325.03 133.36 325.05 134.06 C325.11 137.19 325.15 140.31 325.19 143.44 C325.23 145.04 325.23 145.04 325.26 146.68 C325.33 153.37 324.63 158.83 322 165 C321.34 165 320.68 165 320 165 C320.03 166.17 320.07 167.34 320.11 168.54 C320.13 170.09 320.16 171.64 320.19 173.19 C320.23 174.34 320.23 174.34 320.26 175.52 C320.32 180.12 320.15 183.34 317 187 C316.01 187 315.02 187 314 187 C314 188.98 314 190.96 314 193 C313.01 193.33 312.02 193.66 311 194 C309.79 196 309.79 196 309 198 C307.35 198 305.7 198 304 198 C303.34 199.98 302.68 201.96 302 204 C299.03 203.67 296.06 203.34 293 203 C292.67 203.99 292.34 204.98 292 206 C290.35 206 288.7 206 287 206 C287 206.99 287 207.98 287 209 C183.05 209 79.1 209 -28 209 C-28 207.02 -28 205.04 -28 203 C-30.64 203.33 -33.28 203.66 -36 204 C-36.59 202.89 -36.59 202.89 -37.19 201.75 C-38.85 198.88 -38.85 198.88 -41.56 197.12 C-45.39 193.79 -45.82 190.37 -46.18 185.55 C-46.41 175.99 -45.11 166.48 -44 157 C-43.34 157 -42.68 157 -42 157 C-41.34 154.36 -40.68 151.72 -40 149 C-40.66 148.67 -41.32 148.34 -42 148 C-41.34 148 -40.68 148 -40 148 C-40.01 147.38 -40.02 146.77 -40.04 146.13 C-40.2 131.1 -40.2 131.1 -37.55 126.46 C-35.36 121.57 -35 116.73 -34.44 111.44 C-34.21 109.39 -33.98 107.35 -33.75 105.31 C-33.65 104.41 -33.55 103.51 -33.45 102.58 C-33 100 -33 100 -31.89 97.29 C-31.6 96.54 -31.3 95.78 -31 95 C-31.33 94.34 -31.66 93.68 -32 93 C-31.01 92.5 -31.01 92.5 -30 92 C-29.56 89.69 -29.56 89.69 -29.44 86.91 C-29.36 85.88 -29.29 84.85 -29.21 83.79 C-29.14 82.7 -29.07 81.62 -29 80.5 C-28.86 78.36 -28.72 76.23 -28.56 74.09 C-28.5 73.14 -28.44 72.19 -28.38 71.21 C-28.25 70.48 -28.13 69.75 -28 69 C-27.01 68.5 -27.01 68.5 -26 68 C-25.27 65.69 -24.6 63.35 -24 61 C-24.66 60.67 -25.32 60.34 -26 60 C-25.34 60 -24.68 60 -24 60 C-23.96 59.02 -23.93 58.04 -23.89 57.04 C-23.55 50.32 -23.21 44.12 -20.62 37.83 C-19.79 35.69 -19.79 35.69 -20 32 C-19.34 32 -18.68 32 -18 32 C-18.02 31.35 -18.05 30.7 -18.07 30.02 C-18.18 24.91 -18.02 20.8 -16 16 C-15.01 16 -14.02 16 -13 16 C-12.73 14.87 -12.46 13.73 -12.19 12.56 C-11.8 11.39 -11.4 10.21 -11 9 C-10.01 8.67 -9.02 8.34 -8 8 C-7.67 7.34 -7.34 6.68 -7 6 C-7.66 5.67 -8.32 5.34 -9 5 C-8.43 4.89 -7.87 4.78 -7.29 4.67 C-6.18 4.43 -6.18 4.43 -5.06 4.19 C-4.33 4.04 -3.6 3.89 -2.85 3.73 C-1.93 3.37 -1.93 3.37 -1 3 C-0.67 2.01 -0.34 1.02 0 0 Z M20.44 40.41 C19.96 41.26 19.49 42.12 19 43 C18.01 43.66 17.02 44.32 16 45 C15.49 46.92 15.49 46.92 15.49 49.13 C15.45 49.94 15.42 50.74 15.38 51.57 C15.36 52.42 15.34 53.26 15.31 54.12 C15.28 54.97 15.24 55.82 15.21 56.7 C15.13 58.8 15.06 60.9 15 63 C17.27 64.13 18.69 64.18 21.21 64.28 C22.46 64.34 22.46 64.34 23.73 64.39 C24.61 64.43 25.48 64.46 26.38 64.5 C28.09 64.57 29.81 64.64 31.52 64.72 C32.29 64.75 33.05 64.78 33.83 64.81 C35.98 65 37.93 65.42 40 66 C40 67.98 40 69.96 40 72 C39.34 72 38.68 72 38 72 C38.02 72.59 38.05 73.19 38.07 73.8 C38.21 80.42 37.38 86.53 36 93 C34.51 93.5 34.51 93.5 33 94 C32.98 95.75 32.98 95.75 32.96 97.54 C32.91 99.09 32.86 100.64 32.81 102.19 C32.81 102.96 32.8 103.73 32.79 104.52 C32.57 110.44 32.57 110.44 29.49 113.48 C25.91 117.1 26.29 120.16 26.31 125.06 C26.22 134.38 26.22 134.38 24 138 C23.83 140.67 23.83 140.67 24 143 C23.34 143 22.68 143 22 143 C21.95 143.98 21.9 144.95 21.85 145.96 C21.78 147.23 21.7 148.5 21.62 149.81 C21.56 151.08 21.49 152.34 21.41 153.64 C21 157 21 157 19 160 C18.93 162.07 18.93 162.07 20 164 C24.07 167.14 27.77 167.51 32.75 167.44 C33.46 167.43 34.17 167.42 34.9 167.42 C40.59 167.24 45.36 166.41 50 163 C54.22 157.85 54.19 151.61 54.56 145.19 C54.63 144.15 54.63 144.15 54.69 143.09 C54.8 141.39 54.9 139.7 55 138 C55.99 137.67 56.98 137.34 58 137 C58.2 135.75 58.2 135.75 58.41 134.48 C59.04 130.75 59.72 127.03 60.44 123.31 C60.56 122.65 60.68 121.99 60.81 121.3 C61.46 117.96 62.08 115.88 64 113 C65.13 108.8 65.31 104.51 65.56 100.19 C65.63 99.15 65.63 99.15 65.69 98.09 C65.8 96.39 65.9 94.7 66 93 C66.66 93 67.32 93 68 93 C70.16 87.21 70.71 81.57 71.34 75.46 C72.02 71.9 72.85 70.77 75 68 C77.16 59.16 77.27 50.05 77 41 C76.34 40.67 75.68 40.34 75 40 C75.33 39.34 75.66 38.68 76 38 C68.53 37.87 61.05 37.79 53.58 37.73 C51.03 37.7 48.49 37.67 45.95 37.62 C42.29 37.56 38.64 37.53 34.98 37.51 C33.85 37.49 32.71 37.46 31.53 37.43 C25.38 37.23 25.38 37.23 20.44 40.41 Z M143 43 C140.71 42.94 138.42 42.86 136.12 42.75 C130.6 42.52 130.6 42.52 126.12 45.44 C125.07 46.71 125.07 46.71 124 48 C121.28 48.73 118.84 48.86 116 49 C116 49.99 116 50.98 116 52 C115.01 52.33 114.02 52.66 113 53 C113 53.66 113 54.32 113 55 C112.11 55.23 111.23 55.45 110.31 55.69 C106.48 57.21 104.64 58.85 102 62 C101.65 62.91 101.3 63.81 100.94 64.75 C100.63 65.49 100.32 66.23 100 67 C99.38 67.12 98.76 67.25 98.12 67.38 C95.55 67.87 95.55 67.87 94 71.44 C93.67 72.08 93.35 72.71 93.01 73.37 C92 75 92 75 89.88 76 C87.59 76.95 87.59 76.95 86.81 80.38 C86.37 82.37 85.93 84.37 85.56 86.38 C85.38 86.91 85.19 87.45 85 88 C83.51 88.5 83.51 88.5 82 89 C81.95 89.68 81.9 90.35 81.85 91.05 C81.74 92.38 81.74 92.38 81.62 93.75 C81.56 94.63 81.49 95.51 81.41 96.42 C80.99 99.05 80.43 100.76 79 103 C78.01 103.66 77.02 104.32 76 105 C75.8 107.92 75.79 110.6 75.93 113.51 C75.97 114.77 75.97 114.77 76.01 116.06 C76.09 118.75 76.2 121.44 76.31 124.12 C76.38 125.95 76.44 127.77 76.5 129.59 C76.65 134.06 76.82 138.53 77 143 C77.99 143 78.98 143 80 143 C80.11 143.61 80.22 144.23 80.33 144.86 C80.49 145.67 80.65 146.48 80.81 147.31 C80.96 148.11 81.11 148.91 81.27 149.74 C82.41 153.28 84.65 154.72 87.5 157 C89.49 158.59 91.21 160.21 93 162 C96.23 164.15 97.28 164.2 101 164 C101.43 164.96 101.43 164.96 101.88 165.94 C102.83 168.15 102.83 168.15 105 169 C106.97 169.1 108.95 169.13 110.93 169.13 C112.11 169.13 113.3 169.14 114.53 169.14 C115.78 169.13 117.03 169.13 118.31 169.12 C120.17 169.13 120.17 169.13 122.06 169.14 C123.25 169.14 124.45 169.13 125.68 169.13 C127.31 169.13 127.31 169.13 128.99 169.13 C131.77 169.01 134.29 168.63 137 168 C137 167.34 137 166.68 137 166 C137.66 166 138.32 166 139 166 C139 165.34 139 164.68 139 164 C140.22 164.06 141.43 164.12 142.69 164.19 C146.58 164.19 148.91 163.52 152 161 C152.5 159.51 152.5 159.51 153 158 C153.74 158.08 154.49 158.17 155.25 158.25 C158.93 157.92 159.54 156.74 162 154 C163.28 152.91 164.58 151.83 165.88 150.75 C169.83 147.31 173.38 143.57 176 139 C176 138.01 176 137.02 176 136 C177.32 135.67 178.64 135.34 180 135 C180.66 132.03 181.32 129.06 182 126 C183.65 126 185.3 126 187 126 C186.86 128.27 186.71 130.54 186.56 132.81 C186.44 134.71 186.44 134.71 186.32 136.64 C186 140 186 140 185 143 C183.68 143 182.36 143 181 143 C181 147.62 181 152.24 181 157 C182.98 157.99 182.98 157.99 185 159 C185 159.66 185 160.32 185 161 C185.66 161 186.32 161 187 161 C187 161.66 187 162.32 187 163 C187.68 163.1 188.35 163.2 189.05 163.3 C189.94 163.45 190.83 163.6 191.75 163.75 C192.63 163.89 193.51 164.03 194.42 164.17 C197 165 197 165 198.77 167.02 C201.71 169.63 203.41 169.52 207.3 169.53 C209.14 169.54 209.14 169.54 211.01 169.55 C212.29 169.53 213.56 169.52 214.88 169.5 C216.78 169.52 216.78 169.52 218.71 169.55 C225.53 169.52 229.75 169.43 235 165 C237.48 164.28 237.48 164.28 239.75 163.94 C242.01 163.65 242.01 163.65 244 163 C244.99 161.51 244.99 161.51 246 160 C247.01 159.62 248.03 159.23 249.07 158.84 C254.39 156.72 257.95 152.59 261.88 148.56 C262.65 147.8 263.42 147.03 264.21 146.25 C268.23 142.56 268.23 142.56 270.54 137.81 C270.69 137.21 270.84 136.62 271 136 C271.99 135.67 272.98 135.34 274 135 C274.31 134.07 274.62 133.14 274.94 132.19 C276 129 276 129 278 127.25 C280.72 124.19 280.88 121.33 281.41 117.34 C282 115 282 115 283.5 113.63 C287.21 109.61 286.16 102.11 286.17 96.87 C286.17 96.12 286.17 95.37 286.18 94.59 C286.18 93.01 286.19 91.43 286.19 89.85 C286.19 87.44 286.21 85.03 286.22 82.63 C286.23 81.08 286.23 79.54 286.23 78 C286.24 76.93 286.24 76.93 286.25 75.84 C286.23 69.9 284.79 65.19 282 60 C281.34 60 280.68 60 280 60 C280 58.35 280 56.7 280 55 C279.01 54.67 278.02 54.34 277 54 C276.67 53.34 276.34 52.68 276 52 C273.98 51.35 273.98 51.35 272 51 C272 50.34 272 49.68 272 49 C271.01 49 270.02 49 269 49 C268.67 48.01 268.34 47.02 268 46 C267.01 46 266.02 46 265 46 C264.67 45.01 264.34 44.02 264 43 C250.37 41.23 250.37 41.23 237 43 C233.84 42.93 230.69 42.83 227.54 42.61 C225.29 42.49 225.29 42.49 222 43 C219.76 45.42 219.76 45.42 218 48 C216 48.5 216 48.5 214 48.44 C211.91 48.5 211.91 48.5 210 49 C207.77 51.89 207.77 51.89 206 55 C204.35 55.71 202.68 56.38 201 57 C200.3 58.32 199.63 59.65 199 61 C197.67 61.67 196.33 62.33 195 63 C194.32 64.33 193.65 65.66 193 67 C191.51 67.5 191.51 67.5 190 68 C188.99 69.66 187.99 71.33 187 73 C186.13 73.76 185.27 74.53 184.38 75.31 C181.17 78.94 181.24 81.24 181 86 C179.51 86.5 179.51 86.5 178 87 C176.21 85.21 176.79 82.61 176.75 80.19 C176.72 79.13 176.7 78.07 176.67 76.98 C177.04 73.66 177.86 72.48 180 70 C180.39 68.35 180.72 66.68 181 65 C181.35 63.97 181.7 62.94 182.06 61.88 C183.21 58.36 183.38 56.78 181.75 53.44 C179.86 50.81 178.84 50.34 176 49 C175.24 48.15 174.47 47.31 173.69 46.44 C170.35 43.41 168.43 43.31 164 43 C162.93 42.81 161.86 42.63 160.75 42.44 C154.89 41.75 148.65 41.12 143 43 Z M199 53 C198.34 54.32 197.68 55.64 197 57 C198.32 55.68 199.64 54.36 201 53 C200.34 53 199.68 53 199 53 Z M193 59 C192.34 60.32 191.68 61.64 191 63 C192.32 61.68 193.64 60.36 195 59 C194.34 59 193.68 59 193 59 Z M99 60 C96.69 62.31 94.38 64.62 92 67 C95.25 67.34 95.25 67.34 97.69 64.5 C98.45 63.67 99.21 62.85 100 62 C99.67 61.34 99.34 60.68 99 60 Z " fill="#F8F9F9" transform="translate(193,0)"/>
<path d="M0 0 C36.3 0 72.6 0 110 0 C110 0.99 110 1.98 110 3 C110.74 3.05 111.47 3.1 112.23 3.15 C113.21 3.22 114.18 3.3 115.19 3.38 C116.15 3.44 117.11 3.51 118.11 3.59 C121.07 4.01 123.35 4.62 126 6 C126.33 6.99 126.66 7.98 127 9 C127.95 9.14 128.9 9.29 129.88 9.44 C133 10 133 10 135 11 C135 11.99 135 12.98 135 14 C135.72 14.23 136.44 14.45 137.19 14.69 C142.51 17.17 145.62 21.65 148.87 26.37 C149.77 27.67 150.72 28.93 151.69 30.19 C154.78 34.45 155.23 37.44 155.12 42.75 C155.11 43.92 155.09 45.09 155.07 46.3 C155.05 47.19 155.02 48.08 155 49 C155.66 49 156.32 49 157 49 C159.12 61.75 159.12 61.75 157 66 C156.34 66 155.68 66 155 66 C155.02 66.94 155.02 66.94 155.03 67.9 C155.07 70.72 155.1 73.55 155.12 76.38 C155.14 77.36 155.16 78.34 155.18 79.36 C155.18 80.3 155.19 81.24 155.2 82.21 C155.21 83.08 155.22 83.95 155.23 84.85 C155 87 155 87 153 89 C152.29 90.65 151.62 92.32 151 94 C150.34 94 149.68 94 149 94 C149.12 94.83 149.25 95.65 149.38 96.5 C148.53 104.4 140.74 110.58 135.31 115.94 C134.65 116.61 133.99 117.28 133.3 117.97 C132.66 118.61 132.02 119.25 131.36 119.9 C130.79 120.47 130.21 121.05 129.62 121.64 C128 123 128 123 125 124 C124.67 124.66 124.34 125.32 124 126 C122.67 125.81 122.67 125.81 121.31 125.62 C120.22 125.75 119.13 125.87 118 126 C117.2 127.01 116.39 128.02 115.56 129.06 C114.72 130.03 113.87 131 113 132 C109.19 131.88 109.19 131.88 106 131 C105.67 131.99 105.34 132.98 105 134 C100.1 136.63 96.4 137.37 90.78 137.34 C90.1 137.34 89.41 137.34 88.71 137.34 C86.47 137.34 84.24 137.32 82 137.29 C80.44 137.29 78.89 137.28 77.33 137.28 C73.24 137.27 69.16 137.24 65.07 137.21 C60.89 137.18 56.72 137.16 52.54 137.15 C44.36 137.11 36.18 137.06 28 137 C28.02 138.03 28.03 139.06 28.05 140.13 C28.06 141.49 28.07 142.86 28.09 144.23 C28.1 144.91 28.11 145.58 28.12 146.28 C28.15 151.36 27.66 154.7 25 159 C24.34 159.33 23.68 159.66 23 160 C22.99 160.68 22.98 161.36 22.97 162.06 C22.92 165.19 22.83 168.31 22.75 171.44 C22.74 172.51 22.72 173.58 22.71 174.68 C22.49 181.63 21.39 186.9 18 193 C17.34 193 16.68 193 16 193 C16.33 194.98 16.66 196.96 17 199 C16.01 199.33 15.02 199.66 14 200 C13.67 200.99 13.34 201.98 13 203 C12.03 203.12 11.06 203.25 10.06 203.38 C9.05 203.58 8.04 203.79 7 204 C6.67 204.66 6.34 205.32 6 206 C4.35 206 2.7 206 1 206 C1 206.99 1 207.98 1 209 C-8.9 209 -18.8 209 -29 209 C-29 208.01 -29 207.02 -29 206 C-29.99 206 -30.98 206 -32 206 C-32.33 205.34 -32.66 204.68 -33 204 C-33.95 203.92 -34.9 203.84 -35.88 203.75 C-39 203 -39 203 -40.81 200.12 C-42.72 195.11 -42.96 193.01 -41.56 187.81 C-41.28 186.73 -40.99 185.64 -40.69 184.52 C-40.35 183.27 -40.35 183.27 -40 182 C-40.66 181.67 -41.32 181.34 -42 181 C-41.01 181 -40.02 181 -39 181 C-39.01 180.14 -39.02 179.29 -39.04 178.4 C-39.16 162.74 -39.16 162.74 -36 158 C-35.17 154.7 -34.81 151.45 -34.57 148.06 C-34.5 147.15 -34.42 146.23 -34.35 145.29 C-34.2 143.39 -34.06 141.48 -33.93 139.57 C-33.85 138.66 -33.77 137.75 -33.7 136.81 C-33.6 135.57 -33.6 135.57 -33.51 134.3 C-32.91 131.58 -31.73 130.15 -30 128 C-29.64 125.87 -29.64 125.87 -29.81 123.75 C-29.87 122.51 -29.94 121.28 -30 120 C-29.34 120 -28.68 120 -28 120 C-28.01 119.21 -28.02 118.43 -28.04 117.62 C-28.16 103.11 -28.16 103.11 -25 97 C-25 95.68 -25 94.36 -25 93 C-24.34 93 -23.68 93 -23 93 C-22.99 92.39 -22.97 91.78 -22.96 91.15 C-22.88 88.37 -22.78 85.59 -22.69 82.81 C-22.66 81.85 -22.64 80.89 -22.62 79.9 C-22.42 74.7 -22.1 71.35 -19 67 C-18.75 63.29 -18.75 63.29 -19 60 C-18.34 60 -17.68 60 -17 60 C-17.02 59.24 -17.05 58.48 -17.07 57.69 C-17.2 50 -16.71 43.23 -13.81 36.06 C-13.54 35.38 -13.28 34.7 -13 34 C-13.33 33.34 -13.66 32.68 -14 32 C-13.34 32 -12.68 32 -12 32 C-11.67 25.07 -11.34 18.14 -11 11 C-9.68 10.34 -8.36 9.68 -7 9 C-5.71 5.96 -5.71 5.96 -5 3 C-3.68 3 -2.36 3 -1 3 C-0.67 2.01 -0.34 1.02 0 0 Z M44 50 C43.87 52 43.77 54 43.69 56 C43.41 60.29 43.06 63.45 40.94 67.19 C37.42 73.98 38.54 82.58 39 90 C39.33 90.66 39.66 91.32 40 92 C45.18 92.07 50.36 92.13 55.53 92.16 C57.29 92.18 59.05 92.2 60.81 92.23 C63.35 92.26 65.88 92.28 68.42 92.29 C69.59 92.32 69.59 92.32 70.79 92.34 C75.37 92.34 78.36 91.86 82 89 C82 88.67 82 88.34 82 88 C82.95 87.75 83.9 87.5 84.88 87.25 C88.08 86.33 88.08 86.33 89.25 83.94 C89.5 83.3 89.75 82.66 90 82 C90.66 81.67 91.32 81.34 92 81 C93.88 74.31 95.23 66.7 93 60 C93 59.01 93 58.02 93 57 C91.36 55.95 89.7 54.95 88 54 C87.5 53.01 87.5 53.01 87 52 C86.01 52 85.02 52 84 52 C83.5 50.52 83.5 50.52 83 49 C77.61 48.98 72.21 48.96 66.82 48.95 C64.98 48.94 63.15 48.93 61.31 48.92 C58.68 48.91 56.04 48.91 53.41 48.9 C52.58 48.9 51.76 48.89 50.91 48.89 C47.15 48.52 47.15 48.52 44 50 Z " fill="#F8FAFA" transform="translate(584,0)"/>
<path d="M0 0 C10.23 0 20.46 0 31 0 C31 0.99 31 1.98 31 3 C32.14 3.34 32.14 3.34 33.31 3.69 C36.59 5.29 37.42 6.76 39 10 C40.28 13.85 40.07 16.95 40 21 C40.66 21.33 41.32 21.66 42 22 C43.85 26.03 44.88 29.78 45.31 34.19 C45.91 37.48 46.52 39.2 48 42.06 C50.88 48.07 50.81 54.44 51 61 C51.66 61 52.32 61 53 61 C57.15 65.63 56.28 71.18 56 77 C56.66 77 57.32 77 58 77 C58.31 77.8 58.62 78.61 58.94 79.44 C59.76 81.89 59.76 81.89 61 83 C61.24 85.35 61.41 87.71 61.56 90.06 C61.65 91.35 61.73 92.64 61.82 93.97 C61.88 94.97 61.94 95.97 62 97 C62.66 97 63.32 97 64 97 C66.21 100.59 67.16 103.1 66.88 107.25 C66.67 112.22 68.48 115.37 70.82 119.66 C73.68 125.33 73.13 131.8 73 138 C73.64 138.31 74.28 138.62 74.94 138.94 C77 140 77 140 78 141 C78.07 143.19 78.08 145.38 78.06 147.56 C78.05 148.76 78.04 149.96 78.04 151.19 C78.02 152.12 78.01 153.05 78 154 C78.66 154 79.32 154 80 154 C83.16 159.67 84.08 165.1 85.16 171.44 C85.76 174.94 85.76 174.94 87.56 177.27 C89.89 181.69 89.51 186.21 89.5 191.12 C89.53 192.13 89.56 193.13 89.59 194.16 C89.59 196.87 89.53 199.34 89 202 C85.28 205.45 80.69 206.11 75.73 206.18 C74.89 206.19 74.06 206.2 73.2 206.22 C72.3 206.22 71.41 206.23 70.48 206.24 C69.55 206.25 68.62 206.25 67.67 206.26 C65.7 206.28 63.73 206.29 61.77 206.3 C59.76 206.31 57.76 206.33 55.76 206.36 C52.85 206.4 49.95 206.42 47.05 206.43 C46.16 206.44 45.27 206.46 44.36 206.48 C38.52 206.46 33.81 205.49 29 202 C27.48 199.17 27.11 196.62 26.56 193.48 C26.39 192.56 26.23 191.64 26.06 190.69 C25.9 189.75 25.74 188.8 25.57 187.83 C24.76 183.79 23.74 179.75 22 176 C19.21 174.6 16.9 174.86 13.78 174.84 C12.47 174.83 11.16 174.82 9.81 174.81 C8.38 174.8 6.94 174.8 5.51 174.8 C4.04 174.79 2.57 174.79 1.11 174.78 C-1.97 174.77 -5.05 174.76 -8.13 174.76 C-12.07 174.75 -16.02 174.73 -19.96 174.7 C-22.99 174.68 -26.02 174.68 -29.05 174.68 C-30.51 174.67 -31.96 174.67 -33.42 174.65 C-35.45 174.64 -37.48 174.64 -39.52 174.64 C-40.68 174.64 -41.83 174.64 -43.03 174.63 C-46.31 175.04 -47.54 175.89 -50 178 C-50.66 178 -51.32 178 -52 178 C-52 179.32 -52 180.64 -52 182 C-57.23 187 -57.23 187 -60 187 C-59.94 187.6 -59.88 188.21 -59.82 188.83 C-59.68 191.3 -59.66 193.55 -60 196 C-62.19 198.25 -62.19 198.25 -65 200 C-65.85 200.89 -66.69 201.77 -67.56 202.69 C-71.08 206.02 -73.96 206.13 -78.68 206.11 C-79.6 206.11 -80.52 206.11 -81.47 206.11 C-82.45 206.11 -83.44 206.1 -84.45 206.1 C-85.47 206.1 -86.48 206.09 -87.53 206.09 C-90.77 206.09 -94.01 206.08 -97.25 206.06 C-99.45 206.06 -101.65 206.05 -103.84 206.05 C-109.23 206.04 -114.61 206.02 -120 206 C-120 205.34 -120 204.68 -120 204 C-122.49 203.31 -124.38 203 -127 203 C-127.05 200.92 -127.09 198.83 -127.12 196.75 C-127.15 195.59 -127.17 194.43 -127.2 193.23 C-127.01 190.15 -126.72 188.52 -125 186 C-124.34 185.67 -123.68 185.34 -123 185 C-123.1 184.28 -123.21 183.56 -123.31 182.81 C-122.87 178.84 -121 177.5 -118 175 C-117.34 175 -116.68 175 -116 175 C-115.67 173.02 -115.34 171.04 -115 169 C-114.01 168.67 -113.02 168.34 -112 168 C-111.96 167.32 -111.92 166.64 -111.88 165.94 C-110.79 162.3 -108.94 160.38 -106.38 157.65 C-104.78 155.93 -104.78 155.93 -104 153 C-102.51 152.01 -102.51 152.01 -101 151 C-100.14 148.96 -99.55 146.91 -98.94 144.78 C-98 143 -98 143 -95.9 142.25 C-95.27 142.17 -94.65 142.09 -94 142 C-93.9 141.22 -93.79 140.43 -93.69 139.62 C-93 137 -93 137 -90 135 C-89.9 134.28 -89.79 133.56 -89.69 132.81 C-88.8 129.16 -86.91 127.34 -84.38 124.65 C-82.78 122.93 -82.78 122.93 -82 120 C-81.01 119.34 -80.02 118.68 -79 118 C-78.14 116.18 -78.14 116.18 -77.56 114.12 C-76.33 110.52 -74.86 108.57 -72 106 C-71.5 104.52 -71.5 104.52 -71 103 C-70.01 102.67 -69.02 102.34 -68 102 C-67.91 100.92 -67.91 100.92 -67.81 99.81 C-66.76 96.15 -64.67 94.67 -62 92 C-61.31 90.01 -60.64 88.01 -60 86 C-59.01 85.67 -58.02 85.34 -57 85 C-56.09 83.2 -56.09 83.2 -55.5 81.06 C-54.44 77.58 -54.24 77.16 -51 75 C-49.79 71.95 -49.79 71.95 -49 69 C-47.68 69 -46.36 69 -45 69 C-45.37 68.16 -45.37 68.16 -45.75 67.31 C-46 65 -46 65 -44.19 62.31 C-42 60 -42 60 -40 59 C-39.67 58.01 -39.34 57.02 -39 56 C-38.67 55.01 -38.34 54.02 -38 53 C-37.34 52.67 -36.68 52.34 -36 52 C-36 51.01 -36 50.02 -36 49 C-34.42 47.18 -32.65 45.7 -30.81 44.12 C-28.74 42.16 -28.74 42.16 -29 39.56 C-29 35.94 -27.4 34.61 -25 32 C-24 31 -23 30 -22 29 C-21.01 27.52 -21.01 27.52 -20 26 C-19.34 26 -18.68 26 -18 26 C-18.08 25.28 -18.16 24.56 -18.25 23.81 C-17.92 20.13 -16.5 18.65 -14 16 C-13.34 15.67 -12.68 15.34 -12 15 C-10.95 13.36 -9.96 11.69 -9 10 C-7.45 7.34 -6.18 5.18 -4 3 C-3.01 3 -2.02 3 -1 3 C-0.67 2.01 -0.34 1.02 0 0 Z M0 82 C0 83.98 0 85.96 0 88 C0.33 88 0.66 88 1 88 C1 86.35 1 84.7 1 83 C2.32 82.67 3.64 82.34 5 82 C3.35 82 1.7 82 0 82 Z M3 84 C2.76 84.83 2.76 84.83 2.52 85.68 C1.81 87.89 1.08 89.94 0 92 C-1.66 92.69 -3.32 93.36 -5 94 C-6.33 97.41 -6.33 97.41 -7 101 C-7.33 101.99 -7.66 102.98 -8 104 C-8.99 104.33 -9.98 104.66 -11 105 C-11.47 106.64 -11.93 108.29 -12.34 109.95 C-13.53 113.63 -15.55 117.01 -18 120 C-19.49 120.5 -19.49 120.5 -21 121 C-22.02 123.1 -22.02 123.1 -22.69 125.56 C-22.94 126.39 -23.19 127.22 -23.45 128.07 C-23.63 128.7 -23.81 129.34 -24 130 C-18.4 131.75 -12.37 131.22 -6.56 131.24 C-4.38 131.25 -2.19 131.28 0 131.31 C1.39 131.32 2.78 131.32 4.16 131.33 C5.43 131.34 6.69 131.35 7.99 131.36 C8.98 131.24 9.98 131.12 11 131 C13.69 126.96 12.81 123.89 12.19 119.31 C12.09 118.53 12 117.76 11.9 116.96 C11.7 115.4 11.5 113.84 11.3 112.29 C11.1 110.77 10.92 109.25 10.75 107.73 C10.4 104.52 10.07 102.14 8.56 99.25 C6.23 94.39 5.73 89.3 5 84 C4.34 84 3.68 84 3 84 Z M13 128 C14 130 14 130 14 130 Z M83 168 C83 169.98 83 171.96 83 174 C83.33 174 83.66 174 84 174 C84 172.02 84 170.04 84 168 C83.67 168 83.34 168 83 168 Z " fill="#F8FAFA" transform="translate(832,0)"/>
<path d="M0 0 C15.84 0 31.68 0 48 0 C48.5 1.48 48.5 1.48 49 3 C51.48 3.5 51.48 3.5 54 4 C54 4.99 54 5.98 54 7 C54.5 7.99 54.5 7.99 55 9 C55.66 8.67 56.32 8.34 57 8 C57.15 8.96 57.15 8.96 57.31 9.94 C57.54 10.62 57.77 11.3 58 12 C58.99 12.33 59.98 12.66 61 13 C61 15.64 61 18.28 61 21 C61.66 21 62.32 21 63 21 C66.13 24.97 66.29 28.04 66 33 C66.66 33 67.32 33 68 33 C69.83 36.82 71.14 40.02 71.56 44.25 C71.72 48.07 71.72 48.07 74 51 C74 51.99 74 52.98 74 54 C75.49 54.49 75.49 54.49 77 55 C76.98 56.09 76.96 57.19 76.94 58.31 C76.95 62.83 76.95 62.83 79.41 66.39 C79.96 66.82 80.5 67.25 81.06 67.69 C82.52 68.83 82.52 68.83 84 70 C86.76 68.62 87.44 66.62 89 64 C90.69 62.19 90.69 62.19 92 61 C91.34 60.67 90.68 60.34 90 60 C90.66 59.67 91.32 59.34 92 59 C92.29 58.4 92.58 57.8 92.88 57.19 C94.62 53.79 97.36 51.57 100.19 49.06 C102.19 47.14 102.19 47.14 102.44 44.56 C103.23 40.97 105.41 39.53 108 37 C108.68 35.34 109.35 33.67 110 32 C110.99 31.67 111.98 31.34 113 31 C114.03 29.35 115.03 27.68 116 26 C116.99 25.51 116.99 25.51 118 25 C118.37 23.7 118.37 23.7 118.75 22.38 C120.16 18.57 122.01 16.43 124.76 13.52 C126.21 12.07 126.21 12.07 126 10 C127.65 9.67 129.3 9.34 131 9 C131 7.68 131 6.36 131 5 C131.97 4.73 132.94 4.46 133.94 4.19 C135.45 3.6 135.45 3.6 137 3 C137.33 2.01 137.66 1.02 138 0 C155.82 0 173.64 0 192 0 C195.49 8.14 195.49 8.14 194 15 C193.34 15.99 192.68 16.98 192 18 C191.34 18 190.68 18 190 18 C189.73 18.78 189.46 19.57 189.19 20.38 C188 23 188 23 185 25 C184.53 25.8 184.05 26.61 183.56 27.44 C181.95 30.08 180.62 31.4 178 33 C177.34 33 176.68 33 176 33 C176.08 33.87 176.16 34.73 176.25 35.62 C175.94 39.84 174.69 41.78 172 45 C170.67 45.35 169.34 45.69 168 46 C167.71 46.74 167.42 47.48 167.12 48.25 C166 51 166 51 163 53.44 C159.63 56.31 159.19 57.85 158 62 C156.06 65.37 156.06 65.37 154 68 C153.01 68 152.02 68 151 68 C151 69.32 151 70.64 151 72 C150.34 72 149.68 72 149 72 C148.63 72.96 148.63 72.96 148.25 73.94 C147 76 147 76 144.88 76.75 C144.26 76.83 143.64 76.92 143 77 C143 78.98 143 80.96 143 83 C142.01 83.33 141.02 83.66 140 84 C139.32 85.66 138.65 87.33 138 89 C137.01 89.66 136.02 90.32 135 91 C134.55 91.78 134.09 92.57 133.62 93.38 C132 96 132 96 129.44 97.94 C126.46 100.46 126.11 102.31 125 106 C123.06 109.37 123.06 109.37 121 112 C120.01 112 119.02 112 118 112 C117.94 112.56 117.88 113.11 117.81 113.69 C116.48 117.48 113.58 120.21 110 122 C110.06 122.76 110.12 123.53 110.19 124.31 C110 127 110 127 108.56 128.69 C108.05 129.12 107.53 129.55 107 130 C106.67 130.66 106.34 131.32 106 132 C105.34 132 104.68 132 104 132 C104.02 132.65 104.05 133.3 104.07 133.98 C104.17 139.04 104.17 143.31 102 148 C101.34 148.33 100.68 148.66 100 149 C99.99 149.6 99.97 150.21 99.96 150.83 C99.88 153.6 99.78 156.36 99.69 159.12 C99.66 160.08 99.64 161.03 99.62 162.01 C99.41 167.4 98.95 171.31 96 176 C95.01 176 94.02 176 93 176 C93.03 176.58 93.05 177.16 93.08 177.76 C93.18 180.4 93.25 183.04 93.31 185.69 C93.35 186.6 93.4 187.51 93.44 188.45 C93.56 195.29 93.56 195.29 90.61 199 C89.75 199.66 88.89 200.32 88 201 C87.34 201.74 86.68 202.49 86 203.25 C81.82 206.91 76.04 206.17 70.73 206.2 C69.55 206.21 69.55 206.21 68.33 206.22 C66.66 206.23 64.98 206.24 63.31 206.24 C60.77 206.25 58.24 206.28 55.7 206.31 C39.69 206.42 39.69 206.42 33 203 C31.39 198.79 31.82 194.13 31.81 189.69 C31.8 188.86 31.79 188.03 31.78 187.17 C31.76 179.13 34.13 172.43 37 165 C36.34 164.67 35.68 164.34 35 164 C35.66 164 36.32 164 37 164 C36.99 163.29 36.98 162.57 36.96 161.84 C36.88 152.78 37.55 145.97 42 138 C41.34 137.67 40.68 137.34 40 137 C40.66 137 41.32 137 42 137 C41.91 135.42 41.8 133.83 41.69 132.25 C41.63 131.37 41.57 130.49 41.51 129.58 C40.93 126.63 39.84 125.33 38 123 C37.15 120.66 36.5 118.32 35.84 115.93 C35.57 115.29 35.29 114.65 35 114 C34.01 113.67 33.02 113.34 32 113 C31.95 112.41 31.9 111.82 31.85 111.21 C31.78 110.42 31.7 109.63 31.62 108.81 C31.56 108.04 31.49 107.26 31.41 106.46 C30.96 103.74 30.09 101.53 29 99 C28.67 98.16 28.34 97.33 28 96.46 C27.67 95.63 27.34 94.8 27 93.94 C26.67 93.1 26.34 92.26 26 91.4 C24.59 88.01 23.04 85.06 21 82 C20.45 79.7 20.06 77.39 19.66 75.06 C19.12 72.63 19.12 72.63 16 71 C15.41 68.57 15.41 68.57 15.06 65.69 C14.32 60.88 13.14 58.73 10 55 C9.39 52.75 8.99 50.49 8.56 48.2 C7.74 44.99 5.9 42.68 4 40 C3.32 38 2.65 36 2 34 C1.5 33.4 1.01 32.8 0.5 32.19 C-1.49 29.28 -1.87 26.46 -2.47 23.02 C-2.87 20.79 -2.87 20.79 -5 19 C-6.37 14.82 -6.77 10.33 -6 6 C-3.56 4.12 -3.56 4.12 -1 3 C-0.67 2.01 -0.34 1.02 0 0 Z M135 84 C136 86 136 86 136 86 Z M114 111 C115 113 115 113 115 113 Z " fill="#F8FAF9" transform="translate(938,0)"/>
<path d="M0 0 C2.38 -0.29 2.38 -0.29 5.12 -0.19 C6.04 -0.16 6.95 -0.13 7.88 -0.11 C8.58 -0.07 9.28 -0.04 10 0 C10.5 1.48 10.5 1.48 11 3 C11.95 3.45 12.9 3.91 13.88 4.38 C17.37 6.19 18.31 7.53 20 11 C20.5 11.99 20.5 11.99 21 13 C21.11 15.52 21.16 18.01 21.17 20.53 C21.17 21.64 21.17 21.64 21.18 22.78 C21.18 24.36 21.19 25.94 21.19 27.51 C21.19 29.92 21.21 32.34 21.22 34.75 C21.23 36.28 21.23 37.81 21.23 39.34 C21.24 40.06 21.24 40.78 21.25 41.53 C21.24 45.24 21.12 46.82 19 50 C16.38 50.69 16.38 50.69 14 51 C14.5 55.45 14.5 55.45 15 60 C14.01 60.66 13.02 61.32 12 62 C11.71 62.93 11.42 63.86 11.12 64.81 C9.01 70.82 4.2 73.69 -1 77 C-1.33 77.33 -1.66 77.66 -2 78 C-4.99 78.1 -7.95 78.14 -10.94 78.12 C-11.77 78.13 -12.61 78.13 -13.47 78.14 C-14.28 78.14 -15.08 78.13 -15.9 78.13 C-16.64 78.13 -17.38 78.13 -18.14 78.13 C-20 78 -20 78 -22 77 C-22 76.34 -22 75.68 -22 75 C-22.66 75 -23.32 75 -24 75 C-24.43 74.03 -24.87 73.06 -25.31 72.06 C-26.7 68.72 -26.7 68.72 -30 68 C-30.09 64.35 -30.14 60.71 -30.19 57.06 C-30.21 56.04 -30.24 55.02 -30.26 53.97 C-30.32 48.03 -29.81 43.26 -27.55 37.74 C-26.75 35.92 -26.75 35.92 -28 34 C-27.01 33.5 -27.01 33.5 -26 33 C-25.4 30.46 -25.04 27.93 -24.66 25.35 C-24 23 -24 23 -21 21 C-20.75 19.95 -20.5 18.9 -20.25 17.81 C-18.81 11.92 -13.86 8.24 -9 5 C-7.82 4.69 -6.65 4.38 -5.44 4.06 C-1.76 3.32 -1.76 3.32 0 0 Z M9 64 C10 67 10 67 10 67 Z " fill="#F5F7F7" transform="translate(426,65)"/>
<path d="M0 0 C4.58 1.97 7.33 4.5 9.86 8.75 C11.8 13.8 11.53 19.08 11.41 24.42 C11.37 26.45 11.37 28.47 11.38 30.5 C11.26 42.8 11.26 42.8 7.87 48.39 C6.88 48.88 6.88 48.88 5.87 49.39 C5.53 51.72 5.19 54.05 4.87 56.39 C2.87 59.39 2.87 59.39 -0.13 60.39 C-0.46 62.37 -0.79 64.35 -1.13 66.39 C-1.79 66.39 -2.45 66.39 -3.13 66.39 C-3.62 68.37 -3.62 68.37 -4.13 70.39 C-6.44 70.39 -8.75 70.39 -11.13 70.39 C-11.27 71.19 -11.42 72 -11.57 72.82 C-12.13 75.39 -12.13 75.39 -13.13 76.39 C-15.92 76.57 -18.65 76.66 -21.44 76.7 C-22.21 76.73 -22.99 76.76 -23.78 76.79 C-27.63 76.83 -29.51 76.85 -32.67 74.49 C-34.13 72.39 -34.13 72.39 -34.13 70.39 C-34.79 70.39 -35.45 70.39 -36.13 70.39 C-38.13 67.39 -38.13 67.39 -38.13 64.39 C-38.79 64.39 -39.45 64.39 -40.13 64.39 C-40.16 60.35 -40.18 56.3 -40.19 52.26 C-40.2 51.12 -40.21 49.98 -40.22 48.8 C-40.22 47.69 -40.22 46.58 -40.23 45.44 C-40.23 44.43 -40.24 43.41 -40.24 42.36 C-40.13 39.3 -39.7 36.4 -39.13 33.39 C-38.47 33.39 -37.81 33.39 -37.13 33.39 C-36.47 31.41 -35.81 29.43 -35.13 27.39 C-35.79 27.06 -36.45 26.73 -37.13 26.39 C-36.47 26.06 -35.81 25.73 -35.13 25.39 C-34.47 22.86 -34.47 22.86 -34.13 20.39 C-33.14 20.06 -32.15 19.73 -31.13 19.39 C-30.43 17.72 -29.73 16.05 -29.07 14.36 C-26.35 8.64 -22.07 4.58 -16.13 2.39 C-14.81 2.39 -13.49 2.39 -12.13 2.39 C-12.13 1.73 -12.13 1.07 -12.13 0.39 C-8.29 -1.53 -4.02 -1.16 0 0 Z " fill="#F4F6F6" transform="translate(342.12890625,66.61328125)"/>
<path d="M0 0 C0 0.99 0 1.98 0 3 C-1.32 3 -2.64 3 -4 3 C-4 3.66 -4 4.32 -4 5 C-4.99 5.33 -5.98 5.66 -7 6 C-7 6.99 -7 7.98 -7 9 C-7.99 9.33 -8.98 9.66 -10 10 C-10.33 10.66 -10.66 11.32 -11 12 C-11 11.01 -11 10.02 -11 9 C-12.19 9.11 -12.19 9.11 -13.41 9.22 C-21.55 9.87 -29.63 10.07 -37.8 10.03 C-38.84 10.02 -39.89 10.02 -40.97 10.01 C-45.33 9.98 -49.7 9.95 -54.06 9.9 C-57.28 9.87 -60.51 9.86 -63.73 9.84 C-64.7 9.83 -65.67 9.81 -66.67 9.8 C-72.53 9.78 -77.96 10.37 -83.7 11.57 C-86 12 -86 12 -89 12 C-87.85 9.53 -86.95 7.95 -85 6 C-81.95 5.71 -81.95 5.71 -77.98 5.65 C-77.26 5.64 -76.54 5.63 -75.79 5.61 C-74.22 5.58 -72.65 5.56 -71.08 5.54 C-68.59 5.51 -66.11 5.46 -63.62 5.41 C-56.54 5.27 -49.46 5.15 -42.39 5.05 C-38.06 4.98 -33.73 4.9 -29.41 4.81 C-27.76 4.77 -26.11 4.75 -24.46 4.73 C-22.15 4.71 -19.84 4.66 -17.53 4.61 C-16.22 4.59 -14.91 4.56 -13.56 4.54 C-8.11 3.71 -5.56 0 0 0 Z " fill="#F7F7F7" transform="translate(700,121)"/>
<path d="M0 0 C1.77 0 3.54 0.01 5.32 0.02 C6.25 0.02 7.18 0.02 8.14 0.02 C11.12 0.03 14.11 0.04 17.09 0.05 C19.11 0.06 21.13 0.06 23.15 0.06 C28.11 0.08 33.07 0.09 38.03 0.11 C38.03 1.43 38.03 2.75 38.03 4.11 C33.59 5.24 29.28 5.2 24.74 5.1 C23.95 5.08 23.16 5.06 22.35 5.05 C20.7 5.01 19.04 4.97 17.38 4.93 C14.84 4.86 12.3 4.82 9.76 4.78 C8.15 4.74 6.54 4.7 4.93 4.66 C4.16 4.65 3.4 4.64 2.62 4.63 C0.48 4.56 0.48 4.56 -2.97 4.11 C-3.63 3.12 -4.29 2.13 -4.97 1.11 C-3.97 0.11 -3.97 0.11 0 0 Z " fill="#F8F8F8" transform="translate(813.968994140625,164.886474609375)"/>
<path d="M0 0 C0 0.99 0 1.98 0 3 C-1.32 3 -2.64 3 -4 3 C-4 3.66 -4 4.32 -4 5 C-4.99 5.33 -5.98 5.66 -7 6 C-7 6.99 -7 7.98 -7 9 C-7.99 9.33 -8.98 9.66 -10 10 C-10.33 10.66 -10.66 11.32 -11 12 C-11 11.01 -11 10.02 -11 9 C-12.55 9.13 -12.55 9.13 -14.14 9.25 C-15.51 9.36 -16.88 9.46 -18.25 9.56 C-18.93 9.62 -19.61 9.67 -20.32 9.73 C-23.83 9.99 -26.63 9.87 -30 9 C-31.44 8.86 -32.88 8.76 -34.33 8.68 C-35.13 8.64 -35.93 8.6 -36.75 8.56 C-37.99 8.5 -37.99 8.5 -39.25 8.44 C-40.09 8.39 -40.93 8.35 -41.8 8.31 C-43.86 8.2 -45.93 8.1 -48 8 C-48 7.67 -48 7.34 -48 7 C-47.04 6.91 -47.04 6.91 -46.07 6.82 C-44.83 6.69 -44.83 6.69 -43.56 6.56 C-42.74 6.48 -41.92 6.4 -41.07 6.32 C-39.01 6.21 -39.01 6.21 -38 5 C-36 4.89 -33.99 4.84 -31.99 4.82 C-30.14 4.79 -30.14 4.79 -28.25 4.75 C-25.65 4.71 -23.04 4.68 -20.43 4.66 C-12.66 4.48 -6.68 0 0 0 Z " fill="#F5F5F5" transform="translate(700,121)"/>
<path d="M0 0 C0.66 0.03 1.32 0.05 2 0.08 C4.11 0.16 6.22 0.25 8.33 0.35 C9.76 0.41 11.2 0.47 12.63 0.52 C16.13 0.66 19.64 0.82 23.14 0.98 C23.64 2.96 23.64 2.96 24.14 4.98 C20.9 6.6 17.34 6.12 13.77 6.1 C12.56 6.1 12.56 6.1 11.32 6.09 C-3.69 5.95 -3.69 5.95 -7.86 4.98 C-8.52 3.99 -9.18 3 -9.86 1.98 C-6.13 -0.51 -4.43 -0.19 0 0 Z " fill="#F8F8F8" transform="translate(635.85546875,100.0234375)"/>
<path d="M0 0 C2.33 -0.04 4.67 -0.04 7 0 C9.22 2.22 8.19 6.84 8.19 9.84 C8.12 16.02 7.26 21.95 6 28 C5.34 27.67 4.68 27.34 4 27 C4.66 19.41 5.32 11.82 6 4 C-11.49 3.67 -28.98 3.34 -47 3 C-47 2.67 -47 2.34 -47 2 C-31.49 1.67 -15.98 1.34 0 1 C0 0.67 0 0.34 0 0 Z " fill="#4C4D4D" transform="translate(264,37)"/>
<path d="M0 0 C0.99 0 1.98 0 3 0 C0.87 5.04 -2.83 8.86 -6.69 12.62 C-9.06 14.79 -9.06 14.79 -10 17.25 C-11 19 -11 19 -13.62 19.75 C-14.41 19.83 -15.19 19.91 -16 20 C-16 19.01 -16 18.02 -16 17 C-17.32 16.67 -18.64 16.34 -20 16 C-19.34 16 -18.68 16 -18 16 C-17.67 13.69 -17.34 11.38 -17 9 C-16.34 9.33 -15.68 9.66 -15 10 C-14.38 12.06 -14.38 12.06 -14 14 C-10.77 13.27 -10.77 13.27 -9.19 10.25 C-6.76 6.64 -4.37 4.7 -1 2 C-0.67 1.34 -0.34 0.68 0 0 Z " fill="#A3A2A0" transform="translate(392,49)"/>
<path d="M0 0 C0.33 0 0.66 0 1 0 C0.99 0.71 0.98 1.42 0.96 2.15 C0.96 3.07 0.95 3.99 0.94 4.94 C0.93 5.85 0.91 6.77 0.9 7.71 C0.74 9.97 0.74 9.97 2 11 C2.04 12.67 2.04 14.33 2 16 C2.99 16 3.98 16 5 16 C6.06 21.15 7.44 28.11 5 33 C4.34 33 3.68 33 3 33 C2.45 30.07 2.01 27.2 1.85 24.22 C1.8 23.24 1.74 22.26 1.69 21.25 C1.63 19.83 1.63 19.83 1.57 18.39 C1.25 15.83 1.25 15.83 -1.04 14.67 C-1.69 14.45 -2.33 14.23 -3 14 C-2.34 14 -1.68 14 -1 14 C-1.01 13.24 -1.02 12.48 -1.04 11.7 C-1.04 10.71 -1.05 9.71 -1.06 8.69 C-1.07 7.7 -1.09 6.72 -1.1 5.7 C-1 3 -1 3 0 0 Z " fill="#C7C7C6" transform="translate(976,150)"/>
<path d="M0 0 C0.75 0.01 1.5 0.01 2.27 0.02 C3.08 0.02 3.89 0.02 4.72 0.03 C5.57 0.03 6.42 0.04 7.3 0.05 C8.15 0.06 9 0.06 9.88 0.06 C12 0.08 14.12 0.09 16.23 0.11 C16.8 2.05 16.8 2.05 17.23 4.11 C16.23 5.11 16.23 5.11 13.76 5.25 C8.14 5.23 2.76 5.12 -2.77 4.11 C-2.77 0.18 -2.77 0.18 0 0 Z " fill="#F8F8F8" transform="translate(222.765869140625,171.886474609375)"/>
<path d="M0 0 C0.99 0 1.98 0 3 0 C3.38 20.53 3.38 20.53 1 30 C0.34 30 -0.32 30 -1 30 C-1.2 27.15 -1.38 24.29 -1.56 21.44 C-1.62 20.64 -1.67 19.84 -1.73 19.01 C-2.13 12.45 -1.37 6.44 0 0 Z " fill="#F3F3F3" transform="translate(532,12)"/>
<path d="M0 0 C0.66 0 1.32 0 2 0 C3.34 6.21 3.34 6.21 1.88 9.62 C-3.73 16.73 -3.73 16.73 -8.81 17.81 C-10.39 17.91 -10.39 17.91 -12 18 C-12 16.68 -12 15.36 -12 14 C-10.36 12.62 -10.36 12.62 -8.19 11.44 C-5.96 10.2 -4.17 9.17 -2.36 7.35 C-1 6 -1 6 1 6 C0.67 4.02 0.34 2.04 0 0 Z " fill="#EFEFEE" transform="translate(337,118)"/>
<path d="M0 0 C0.66 0.33 1.32 0.66 2 1 C3.15 7.99 3.11 14.93 3 22 C1.68 22 0.36 22 -1 22 C-2.19 19.61 -2.05 18.33 -1.91 15.68 C-1.87 14.84 -1.83 13.99 -1.78 13.12 C-1.73 12.23 -1.68 11.35 -1.62 10.44 C-1.58 9.55 -1.54 8.66 -1.49 7.74 C-1.13 1.13 -1.13 1.13 0 0 Z " fill="#F8F8F8" transform="translate(312,102)"/>
<path d="M0 0 C0.33 0 0.66 0 1 0 C1 1.98 1 3.96 1 6 C1.66 6 2.32 6 3 6 C4.83 11.53 5.4 16.63 5.62 22.44 C5.66 23.26 5.7 24.09 5.74 24.94 C5.84 26.96 5.92 28.98 6 31 C5.01 31.33 4.02 31.66 3 32 C2.67 25.4 2.34 18.8 2 12 C0.35 11.67 -1.3 11.34 -3 11 C-2.34 10.34 -1.68 9.68 -1 9 C-0.54 6.8 -0.54 6.8 -0.38 4.38 C-0.3 3.56 -0.23 2.74 -0.15 1.9 C-0.1 1.27 -0.05 0.65 0 0 Z " fill="#BBBBBA" transform="translate(258,99)"/>
<path d="M0 0 C0.66 0.33 1.32 0.66 2 1 C2.25 17.36 2.25 17.36 1 23 C0.34 23.33 -0.32 23.66 -1 24 C-1.89 19.4 -2.16 15 -2.19 10.31 C-2.2 9.01 -2.22 7.71 -2.23 6.36 C-2 3 -2 3 0 0 Z " fill="#F1F1F1" transform="translate(521,79)"/>
<path d="M0 0 C0.33 0.99 0.66 1.98 1 3 C-1.57 5.66 -4.16 8.3 -6.75 10.94 C-7.48 11.69 -8.21 12.45 -8.96 13.22 C-10.02 14.3 -10.02 14.3 -11.11 15.4 C-11.76 16.07 -12.41 16.73 -13.08 17.42 C-15.09 19.08 -16.45 19.6 -19 20 C-17.98 16.95 -16.88 15.71 -14.6 13.54 C-13.36 12.35 -12.16 11.13 -10.96 9.9 C-10.25 9.17 -9.54 8.44 -8.81 7.69 C-8.14 6.99 -7.46 6.29 -6.77 5.57 C-5 4 -5 4 -3 4 C-2.67 3.01 -2.34 2.02 -2 1 C-1.34 0.67 -0.68 0.34 0 0 Z " fill="#A8A7A5" transform="translate(300,49)"/>
<path d="M0 0 C20.13 0 40.26 0 61 0 C61 0.33 61 0.66 61 1 C59.9 1.01 59.9 1.01 58.77 1.02 C51.86 1.08 44.94 1.15 38.03 1.24 C34.47 1.28 30.91 1.32 27.36 1.35 C23.27 1.38 19.19 1.43 15.1 1.49 C13.82 1.49 12.54 1.5 11.22 1.51 C10.04 1.53 8.86 1.55 7.64 1.57 C6.08 1.58 6.08 1.58 4.48 1.6 C3.66 1.73 2.84 1.86 2 2 C1.01 3.49 1.01 3.49 0 5 C0 3.35 0 1.7 0 0 Z " fill="#000102" transform="translate(613,138)"/>
<path d="M0 0 C0.33 0 0.66 0 1 0 C1.09 3.77 1.14 7.54 1.19 11.31 C1.21 12.38 1.24 13.46 1.26 14.56 C1.27 15.59 1.28 16.62 1.29 17.68 C1.31 18.62 1.32 19.57 1.34 20.55 C0.94 23.4 0.22 24.25 -2 26 C-2.05 22.98 -2.09 19.96 -2.12 16.94 C-2.14 16.09 -2.16 15.24 -2.18 14.37 C-2.22 9.17 -1.7 4.93 0 0 Z " fill="#9D9D9B" transform="translate(972,173)"/>
<path d="M0 0 C0.66 0 1.32 0 2 0 C3.23 2.45 3.03 3.84 2.88 6.57 C2.83 7.47 2.78 8.36 2.73 9.29 C2.68 10.22 2.62 11.16 2.56 12.12 C2.51 13.07 2.46 14.01 2.4 14.99 C2.27 17.33 2.14 19.66 2 22 C1.34 22 0.68 22 0 22 C-0.2 18.52 -0.38 15.04 -0.56 11.56 C-0.62 10.57 -0.67 9.58 -0.73 8.55 C-0.78 7.61 -0.83 6.66 -0.88 5.69 C-0.93 4.82 -0.97 3.94 -1.02 3.04 C-1 1 -1 1 0 0 Z " fill="#F1F1F1" transform="translate(157,162)"/>
<path d="M0 0 C0.33 0 0.66 0 1 0 C1 5.28 1 10.56 1 16 C1.99 15.67 2.98 15.34 4 15 C3.67 15.99 3.34 16.98 3 18 C2.34 18 1.68 18 1 18 C1.04 19.18 1.08 20.35 1.12 21.56 C1.14 25.72 0.31 29.06 -1 33 C-1.66 33 -2.32 33 -3 33 C-2.86 30.52 -2.71 28.04 -2.56 25.56 C-2.52 24.86 -2.48 24.15 -2.44 23.42 C-2.11 18.11 -2.11 18.11 -1 17 C-0.95 14.33 -0.95 11.67 -1 9 C-1.05 6.33 -1.05 3.67 -1 1 C-0.67 0.67 -0.34 0.34 0 0 Z " fill="#F7F7F7" transform="translate(260,115)"/>
<path d="M0 0 C0 0.99 0 1.98 0 3 C-1.32 3 -2.64 3 -4 3 C-4 3.66 -4 4.32 -4 5 C-4.99 5.33 -5.98 5.66 -7 6 C-7 6.99 -7 7.98 -7 9 C-7.99 9.33 -8.98 9.66 -10 10 C-10.33 10.66 -10.66 11.32 -11 12 C-11.33 11.01 -11.66 10.02 -12 9 C-14 7.79 -14 7.79 -16 7 C-15.34 7 -14.68 7 -14 7 C-14 6.34 -14 5.68 -14 5 C-13.28 4.73 -12.56 4.46 -11.81 4.19 C-8.96 3.08 -8.96 3.08 -6.44 1.38 C-4 0 -4 0 0 0 Z " fill="#EEEDED" transform="translate(700,121)"/>
<path d="M0 0 C0.96 0.05 1.92 0.09 2.9 0.14 C3.94 0.19 4.97 0.24 6.04 0.29 C7.13 0.35 8.22 0.4 9.34 0.46 C10.43 0.51 11.52 0.56 12.65 0.62 C15.36 0.75 18.07 0.88 20.78 1.02 C20.78 1.68 20.78 2.34 20.78 3.02 C17.15 3.08 13.53 3.12 9.9 3.15 C8.87 3.16 7.84 3.18 6.77 3.2 C5.79 3.2 4.8 3.21 3.78 3.22 C2.42 3.23 2.42 3.23 1.02 3.25 C-1.22 3.02 -1.22 3.02 -3.22 1.02 C-2.22 0.02 -2.22 0.02 0 0 Z " fill="#E8E8E7" transform="translate(822.224853515625,139.978271484375)"/>
<path d="M0 0 C1.98 0.49 1.98 0.49 4 1 C4 4.3 4 7.6 4 11 C2.68 11 1.36 11 0 11 C-1.49 8.01 -1.12 5.29 -1 2 C-0.67 1.34 -0.34 0.68 0 0 Z " fill="#F7F7F7" transform="translate(278,40)"/>
<path d="M0 0 C0.99 0.33 1.98 0.66 3 1 C2.67 5.95 2.34 10.9 2 16 C1.01 15.34 0.02 14.68 -1 14 C-1.33 11 -1.33 11 -1.25 7.44 C-1.23 5.67 -1.23 5.67 -1.2 3.87 C-1 1 -1 1 0 0 Z " fill="#EAE9E9" transform="translate(603,141)"/>
<path d="M0 0 C0.99 0.33 1.98 0.66 3 1 C3 4.96 3 8.92 3 13 C1.68 12.67 0.36 12.34 -1 12 C-1.03 10.19 -1.05 8.38 -1.06 6.56 C-1.07 5.55 -1.09 4.54 -1.1 3.5 C-1 1 -1 1 0 0 Z " fill="#F5F5F5" transform="translate(863,177)"/>
<path d="M0 0 C0.99 0.33 1.98 0.66 3 1 C3 4.96 3 8.92 3 13 C1.68 12.67 0.36 12.34 -1 12 C-1.03 10.19 -1.05 8.38 -1.06 6.56 C-1.07 5.55 -1.09 4.54 -1.1 3.5 C-1 1 -1 1 0 0 Z " fill="#F8F8F8" transform="translate(962,62)"/>
<path d="M0 0 C0.33 0 0.66 0 1 0 C1 2.64 1 5.28 1 8 C1.66 8.33 2.32 8.66 3 9 C4.6 13.38 5.37 16.49 4 21 C3.34 20.67 2.68 20.34 2 20 C2 18.35 2 16.7 2 15 C0.35 14.67 -1.3 14.34 -3 14 C-2.34 13.67 -1.68 13.34 -1 13 C-0.53 9.95 -0.53 9.95 -0.38 6.44 C-0.3 5.24 -0.23 4.04 -0.15 2.81 C-0.1 1.88 -0.05 0.95 0 0 Z " fill="#919190" transform="translate(264,74)"/>
<path d="M0 0 C0.99 0.33 1.98 0.66 3 1 C2.67 5.95 2.34 10.9 2 16 C1.01 15.67 0.02 15.34 -1 15 C-1.03 12.69 -1.05 10.38 -1.06 8.06 C-1.07 6.77 -1.09 5.49 -1.1 4.16 C-1 1 -1 1 0 0 Z " fill="#ECEBEB" transform="translate(620,53)"/>
<path d="M0 0 C1.32 0.66 2.64 1.32 4 2 C4 4.97 4 7.94 4 11 C2.68 11 1.36 11 0 11 C-0.19 9.54 -0.38 8.08 -0.56 6.62 C-0.67 5.81 -0.77 5 -0.88 4.16 C-1 2 -1 2 0 0 Z " fill="#F8F8F8" transform="translate(945,24)"/>
<path d="M0 0 C0.66 0.33 1.32 0.66 2 1 C2.62 3.06 2.62 3.06 3 5 C4.65 5 6.3 5 8 5 C7.31 7.44 7.31 7.44 6 10 C3.38 10.81 3.38 10.81 1 11 C1 10.01 1 9.02 1 8 C-0.32 7.67 -1.64 7.34 -3 7 C-2.34 7 -1.68 7 -1 7 C-0.67 4.69 -0.34 2.38 0 0 Z " fill="#C8C7C6" transform="translate(375,58)"/>
<path d="M0 0 C0.99 0 1.98 0 3 0 C4.26 2.52 4.1 4.31 4.06 7.12 C4.05 8.04 4.04 8.95 4.04 9.88 C4.02 10.58 4.01 11.28 4 12 C3.01 12 2.02 12 1 12 C0 11 0 11 -0.1 8.5 C-0.09 7.49 -0.07 6.48 -0.06 5.44 C-0.05 4.43 -0.04 3.41 -0.04 2.37 C-0.02 1.59 -0.01 0.81 0 0 Z " fill="#F8F8F8" transform="translate(983,118)"/>
<path d="M0 0 C2 3.75 2 3.75 2 6 C1.34 6 0.68 6 0 6 C-0.66 7.32 -1.32 8.64 -2 10 C-4.97 9.5 -4.97 9.5 -8 9 C-7.04 7.87 -6.08 6.75 -5.12 5.62 C-4.59 5 -4.06 4.37 -3.51 3.73 C-2.39 2.44 -1.21 1.21 0 0 Z " fill="#FAFCFC" transform="translate(339,127)"/>
<path d="M0 0 C1.49 0.99 1.49 0.99 3 2 C3.29 4.38 3.29 4.38 3.19 7.12 C3.16 8.04 3.13 8.95 3.11 9.88 C3.07 10.58 3.04 11.28 3 12 C2.01 12 1.02 12 0 12 C-1.19 9.62 -1.13 8.09 -1.12 5.44 C-1.13 4.23 -1.13 4.23 -1.13 3 C-1 1 -1 1 0 0 Z " fill="#F8F8F8" transform="translate(973,89)"/>
<path d="M0 0 C1.52 0 3.04 0.01 4.55 0.02 C5.35 0.02 6.15 0.02 6.97 0.02 C9.53 0.03 12.09 0.04 14.64 0.05 C16.37 0.06 18.1 0.06 19.83 0.06 C24.08 0.08 28.33 0.09 32.58 0.11 C32.58 0.44 32.58 0.77 32.58 1.11 C15.26 1.61 15.26 1.61 -2.42 2.11 C-3.08 3.43 -3.74 4.75 -4.42 6.11 C-4.46 4.45 -4.46 2.78 -4.42 1.11 C-3.42 0.11 -3.42 0.11 0 0 Z " fill="#040405" transform="translate(633.418212890625,49.886474609375)"/>
<path d="M0 0 C0.33 0 0.66 0 1 0 C1.93 7.13 2 13.95 1.56 21.12 C1.51 22.08 1.46 23.04 1.4 24.02 C1.28 26.35 1.14 28.67 1 31 C0.67 31 0.34 31 0 31 C0 20.77 0 10.54 0 0 Z " fill="#070908" transform="translate(447,78)"/>
<path d="M0 0 C0.99 0.33 1.98 0.66 3 1 C1.93 3.92 1.22 5.78 -1 8 C-3.12 7.62 -3.12 7.62 -5 7 C-4.62 4.24 -4.16 3.16 -2.12 1.19 C-1.42 0.8 -0.72 0.4 0 0 Z " fill="#F8F8F8" transform="translate(500,186)"/>
<path d="M0 0 C0.99 0 1.98 0 3 0 C3 3.3 3 6.6 3 10 C1.68 10 0.36 10 -1 10 C-1.12 3.38 -1.12 3.38 0 0 Z " fill="#F8F8F8" transform="translate(597,167)"/>
<path d="M0 0 C0.99 0 1.98 0 3 0 C3.03 1.46 3.05 2.92 3.06 4.38 C3.07 5.19 3.09 6 3.1 6.84 C3 9 3 9 2 11 C1.01 10.67 0.02 10.34 -1 10 C-1.12 2.25 -1.12 2.25 0 0 Z " fill="#F8F8F8" transform="translate(509,142)"/>
<path d="M0 0 C0.33 0 0.66 0 1 0 C1.03 1.96 1.05 3.92 1.06 5.88 C1.07 6.97 1.09 8.06 1.1 9.18 C1 12 1 12 0 14 C0.66 14 1.32 14 2 14 C2.33 11.69 2.66 9.38 3 7 C4.24 10.58 3.75 13.34 3 17 C1.68 17 0.36 17 -1 17 C-0.67 11.39 -0.34 5.78 0 0 Z " fill="#F8F8F8" transform="translate(257,134)"/>
<path d="M0 0 C2 1 2 1 2.63 2.85 C2.8 3.58 2.96 4.31 3.12 5.06 C3.29 5.8 3.46 6.53 3.63 7.29 C3.75 7.85 3.88 8.42 4 9 C3.01 9.33 2.02 9.66 1 10 C0.01 9.34 -0.98 8.68 -2 8 C-2.19 4.38 -2.19 4.38 -2 1 C-1.34 0.67 -0.68 0.34 0 0 Z " fill="#F8F8F8" transform="translate(280,57)"/>
<path d="M0 0 C3.63 0 7.26 0 11 0 C11 0.33 11 0.66 11 1 C8.36 1.33 5.72 1.66 3 2 C4.58 3.58 6.38 3.35 8.56 3.56 C9.39 3.65 10.22 3.73 11.07 3.82 C11.7 3.88 12.34 3.94 13 4 C13 4.33 13 4.66 13 5 C11.04 5.03 9.08 5.05 7.12 5.06 C6.03 5.07 4.94 5.09 3.82 5.1 C1 5 1 5 -1 4 C-0.67 2.68 -0.34 1.36 0 0 Z " fill="#F8F8F8" transform="translate(817,139)"/>
<path d="M0 0 C0.99 0 1.98 0 3 0 C2.67 4.62 2.34 9.24 2 14 C1.01 13.34 0.02 12.68 -1 12 C-0.67 8.04 -0.34 4.08 0 0 Z " fill="#E8E8E7" transform="translate(217,99)"/>
<path d="M0 0 C0.66 0 1.32 0 2 0 C3.12 7.62 3.12 7.62 2 11 C1.34 11 0.68 11 0 11 C-1.63 7.75 -1.11 4.61 -1 1 C-0.67 0.67 -0.34 0.34 0 0 Z " fill="#F4F4F3" transform="translate(343,102)"/>
<path d="M0 0 C0.66 0.33 1.32 0.66 2 1 C2 3.64 2 6.28 2 9 C0.68 9 -0.64 9 -2 9 C-2.12 5.62 -2.12 5.62 -2 2 C-1.34 1.34 -0.68 0.68 0 0 Z " fill="#F8F8F8" transform="translate(615,80)"/>
<path d="M0 0 C1.32 0 2.64 0 4 0 C3.71 0.7 3.42 1.4 3.12 2.12 C1.98 5.05 0.97 8.01 0 11 C-0.99 10.67 -1.98 10.34 -3 10 C-2.39 6.44 -1.42 3.32 0 0 Z " fill="#D7D7D6" transform="translate(274,75)"/>
<path d="M0 0 C2 2 2 2 2 6 C1.03 6.43 0.06 6.87 -0.94 7.31 C-4.28 8.7 -4.28 8.7 -5 12 C-6.32 11.67 -7.64 11.34 -9 11 C-8.34 10.67 -7.68 10.34 -7 10 C-6.71 9.4 -6.42 8.8 -6.12 8.19 C-4.8 5.61 -3.07 4.01 -1 2 C-0.67 1.34 -0.34 0.68 0 0 Z " fill="#B8B8B7" transform="translate(1037,49)"/>
<path d="M0 0 C1.98 0 3.96 0 6 0 C6 2.31 6 4.62 6 7 C4.12 6.69 4.12 6.69 2 6 C0 3 0 3 0 0 Z " fill="#F8F8F8" transform="translate(857,0)"/>
<path d="M0 0 C0.66 0 1.32 0 2 0 C2.33 3.96 2.66 7.92 3 12 C1.35 12.33 -0.3 12.66 -2 13 C-1.34 12.67 -0.68 12.34 0 12 C0 8.04 0 4.08 0 0 Z " fill="#7E7D7C" transform="translate(567,48)"/>
<path d="M0 0 C0 1.32 0 2.64 0 4 C-4.07 7 -4.07 7 -7 7 C-7.66 8.32 -8.32 9.64 -9 11 C-9.66 10.34 -10.32 9.68 -11 9 C-9.55 7.49 -8.09 6 -6.62 4.5 C-5.41 3.25 -5.41 3.25 -4.16 1.97 C-2 0 -2 0 0 0 Z " fill="#C9C9C8" transform="translate(465,139)"/>
<path d="M0 0 C4.62 0 9.24 0 14 0 C14.33 0.66 14.66 1.32 15 2 C11.45 3.16 8.44 2.92 4.75 2.56 C3.67 2.46 2.59 2.36 1.48 2.25 C0.66 2.17 -0.16 2.09 -1 2 C-0.67 1.34 -0.34 0.68 0 0 Z " fill="#F1F1F1" transform="translate(642,102)"/>
<path d="M0 0 C0.66 0.33 1.32 0.66 2 1 C2 3.64 2 6.28 2 9 C0.68 9 -0.64 9 -2 9 C-1.12 1.12 -1.12 1.12 0 0 Z " fill="#F8F8F8" transform="translate(201,53)"/>
<path d="M0 0 C0.66 0.33 1.32 0.66 2 1 C1.89 2.79 1.76 4.58 1.62 6.38 C1.52 7.87 1.52 7.87 1.41 9.4 C1 12 1 12 -1 14 C-1.03 11.85 -1.05 9.71 -1.06 7.56 C-1.07 6.37 -1.09 5.17 -1.1 3.94 C-1 1 -1 1 0 0 Z " fill="#5F5E5D" transform="translate(706,189)"/>
<path d="M0 0 C1.6 4 0.29 7.05 -1 11 C-1.99 10.67 -2.98 10.34 -4 10 C-4 8.02 -4 6.04 -4 4 C-3.01 3.67 -2.02 3.34 -1 3 C-0.67 2.01 -0.34 1.02 0 0 Z " fill="#EFEFEE" transform="translate(269,91)"/>
<path d="M0 0 C0.99 0.33 1.98 0.66 3 1 C2.45 5.03 1.84 9.02 1 13 C0.34 13 -0.32 13 -1 13 C-0.67 8.71 -0.34 4.42 0 0 Z " fill="#E9E9E8" transform="translate(258,135)"/>
<path d="M0 0 C1.32 0.33 2.64 0.66 4 1 C3.34 2.65 2.68 4.3 2 6 C1.01 6 0.02 6 -1 6 C-1.33 5.01 -1.66 4.02 -2 3 C-1.34 2.01 -0.68 1.02 0 0 Z " fill="#F8F8F8" transform="translate(592,192)"/>
<path d="M0 0 C0 2.97 0 5.94 0 9 C-2 7 -2 7 -2.12 3.88 C-2.08 2.93 -2.04 1.98 -2 1 C-2.66 1 -3.32 1 -4 1 C-4.66 2.32 -5.32 3.64 -6 5 C-6 3.35 -6 1.7 -6 0 C-2.25 -1.12 -2.25 -1.12 0 0 Z " fill="#272727" transform="translate(839,83)"/>
<path d="M0 0 C0.66 0.33 1.32 0.66 2 1 C1.67 3.64 1.34 6.28 1 9 C0.34 9 -0.32 9 -1 9 C-1.62 5.62 -1.62 5.62 -2 2 C-1.34 1.34 -0.68 0.68 0 0 Z " fill="#F8F8F8" transform="translate(527,51)"/>
<path d="M0 0 C2.06 0.44 2.06 0.44 4 1 C3.67 2.65 3.34 4.3 3 6 C2.01 6 1.02 6 0 6 C-0.38 4.34 -0.71 2.68 -1 1 C-0.67 0.67 -0.34 0.34 0 0 Z " fill="#F8F8F8" transform="translate(156,150)"/>
<path d="M0 0 C2 3 2 3 1.62 5.69 C1.42 6.45 1.21 7.21 1 8 C-0.65 7.67 -2.3 7.34 -4 7 C-2.79 4.59 -1.4 2.31 0 0 Z " fill="#787877" transform="translate(1026,65)"/>
<path d="M0 0 C1.23 3.68 0.91 6.91 0.56 10.75 C0.46 11.92 0.36 13.09 0.25 14.3 C0.17 15.19 0.09 16.08 0 17 C-0.33 17 -0.66 17 -1 17 C-1.03 14.35 -1.05 11.71 -1.06 9.06 C-1.07 8.31 -1.08 7.55 -1.09 6.78 C-1.1 4.85 -1.05 2.92 -1 1 C-0.67 0.67 -0.34 0.34 0 0 Z " fill="#090B0A" transform="translate(608,160)"/>
<path d="M0 0 C0.99 0.5 0.99 0.5 2 1 C1.67 5.62 1.34 10.24 1 15 C0.67 15 0.34 15 0 15 C0 10.05 0 5.1 0 0 Z " fill="#0D0E0E" transform="translate(1032,177)"/>
<path d="M0 0 C0.99 0.5 0.99 0.5 2 1 C1.67 5.62 1.34 10.24 1 15 C0.67 15 0.34 15 0 15 C0 10.05 0 5.1 0 0 Z " fill="#060707" transform="translate(519,133)"/>
<path d="M0 0 C0.33 0 0.66 0 1 0 C1 4.95 1 9.9 1 15 C0.67 15 0.34 15 0 15 C0 10.05 0 5.1 0 0 Z " fill="#060607" transform="translate(530,73)"/>
<path d="M0 0 C0.33 0 0.66 0 1 0 C1 4.62 1 9.24 1 14 C0.67 14 0.34 14 0 14 C0 9.38 0 4.76 0 0 Z " fill="#090A0A" transform="translate(740,67)"/>
<path d="M0 0 C0.33 0 0.66 0 1 0 C1 2.97 1 5.94 1 9 C-1.09 4.82 -1.17 4.2 0 0 Z " fill="#1A1919" transform="translate(271,105)"/>
<path d="M0 0 C0.33 0 0.66 0 1 0 C1 3.63 1 7.26 1 11 C0.67 11 0.34 11 0 11 C0 7.37 0 3.74 0 0 Z " fill="#000002" transform="translate(922,186)"/>
<path d="M0 0 C0.33 0 0.66 0 1 0 C1 3.63 1 7.26 1 11 C0.67 11 0.34 11 0 11 C0 7.37 0 3.74 0 0 Z " fill="#141414" transform="translate(221,117)"/>
<path d="M0 0 C0.33 0 0.66 0 1 0 C1 3.63 1 7.26 1 11 C0.67 11 0.34 11 0 11 C0 7.37 0 3.74 0 0 Z " fill="#000002" transform="translate(541,17)"/>
<path d="M0 0 C0.33 0 0.66 0 1 0 C1 1.98 1 3.96 1 6 C0.34 5.67 -0.32 5.34 -1 5 C-0.67 3.35 -0.34 1.7 0 0 Z " fill="#141313" transform="translate(514,166)"/>
<path d="M0 0 C0.33 0 0.66 0 1 0 C1 2.31 1 4.62 1 7 C0.34 6.34 -0.32 5.68 -1 5 C-0.62 2.38 -0.62 2.38 0 0 Z " fill="#131212" transform="translate(525,105)"/>
<path d="M0 0 C0.33 0 0.66 0 1 0 C1 2.31 1 4.62 1 7 C0.34 6.34 -0.32 5.68 -1 5 C-0.62 2.38 -0.62 2.38 0 0 Z " fill="#121112" transform="translate(740,41)"/>
<path d="M0 0 C0.33 0 0.66 0 1 0 C1.33 2.64 1.66 5.28 2 8 C1.34 7.67 0.68 7.34 0 7 C0 4.69 0 2.38 0 0 Z " fill="#0A0A0B" transform="translate(905,129)"/>
<path d="M0 0 C0.33 0 0.66 0 1 0 C1 2.97 1 5.94 1 9 C0.67 9 0.34 9 0 9 C0 6.03 0 3.06 0 0 Z " fill="#040506" transform="translate(624,73)"/>
<path d="M0 0 C0.33 0 0.66 0 1 0 C1.33 2.64 1.66 5.28 2 8 C1.34 7.67 0.68 7.34 0 7 C0 4.69 0 2.38 0 0 Z " fill="#080809" transform="translate(883,52)"/>
<path d="M0 0 C0.33 0 0.66 0 1 0 C1 2.64 1 5.28 1 8 C0.67 8 0.34 8 0 8 C0 5.36 0 2.72 0 0 Z " fill="#000102" transform="translate(1038,150)"/>
<path d="M0 0 C0.66 0.66 1.32 1.32 2 2 C1.62 4.12 1.62 4.12 1 6 C0.67 4.02 0.34 2.04 0 0 Z " fill="#242322" transform="translate(910,147)"/>
<path d="M0 0 C0.33 0 0.66 0 1 0 C1 1.65 1 3.3 1 5 C0.34 4.67 -0.32 4.34 -1 4 C-0.67 2.68 -0.34 1.36 0 0 Z " fill="#1E1D1D" transform="translate(442,116)"/>
<path d="M0 0 C0.33 0 0.66 0 1 0 C1 2.64 1 5.28 1 8 C0.67 8 0.34 8 0 8 C0 5.36 0 2.72 0 0 Z " fill="#0F1010" transform="translate(894,89)"/>
<path d="M0 0 C0.33 0 0.66 0 1 0 C1 2.31 1 4.62 1 7 C-0.06 5.19 -0.06 5.19 -1 3 C-0.67 2.01 -0.34 1.02 0 0 Z " fill="#080809" transform="translate(536,45)"/>
<path d="M0 0 C1.98 0 3.96 0 6 0 C2.25 2 2.25 2 0 2 C0 1.34 0 0.68 0 0 Z " fill="#161615" transform="translate(415,44)"/>
<path d="M0 0 C1.98 0.5 1.98 0.5 4 1 C2.35 1.66 0.7 2.32 -1 3 C-0.67 2.01 -0.34 1.02 0 0 Z " fill="#0F1010" transform="translate(498,198)"/>
<path d="M0 0 C0.33 1.32 0.66 2.64 1 4 C0.34 4 -0.32 4 -1 4 C-0.67 2.68 -0.34 1.36 0 0 Z " fill="#242322" transform="translate(602,193)"/>
<path d="M0 0 C0.66 0.33 1.32 0.66 2 1 C1.01 2.49 1.01 2.49 0 4 C0 2.68 0 1.36 0 0 Z " fill="#181818" transform="translate(773,188)"/>
<path d="M0 0 C0.66 0 1.32 0 2 0 C1.67 1.32 1.34 2.64 1 4 C0.67 2.68 0.34 1.36 0 0 Z " fill="#1A1A19" transform="translate(375,144)"/>
<path d="M0 0 C0.99 1.48 0.99 1.48 2 3 C1.67 3.99 1.34 4.98 1 6 C0.67 4.02 0.34 2.04 0 0 Z " fill="#222120" transform="translate(899,108)"/>
<path d="M0 0 C0.33 0 0.66 0 1 0 C1 2.31 1 4.62 1 7 C0.67 7 0.34 7 0 7 C0 4.69 0 2.38 0 0 Z " fill="#050506" transform="translate(232,73)"/>
<path d="M0 0 C0.99 1.48 0.99 1.48 2 3 C1.67 3.99 1.34 4.98 1 6 C0.67 4.02 0.34 2.04 0 0 Z " fill="#292826" transform="translate(888,70)"/>
<path d="M0 0 C0.33 0 0.66 0 1 0 C1 2.31 1 4.62 1 7 C0.67 7 0.34 7 0 7 C0 4.69 0 2.38 0 0 Z " fill="#050506" transform="translate(872,13)"/>
<path d="M0 0 C0.33 0 0.66 0 1 0 C1 1.98 1 3.96 1 6 C0.67 6 0.34 6 0 6 C0 4.02 0 2.04 0 0 Z " fill="#030304" transform="translate(271,136)"/>
<path d="M0 0 C0.33 0 0.66 0 1 0 C1 1.98 1 3.96 1 6 C0.67 6 0.34 6 0 6 C0 4.02 0 2.04 0 0 Z " fill="#000002" transform="translate(227,95)"/>
<path d="M0 0 C0.66 0.66 1.32 1.32 2 2 C1.67 2.99 1.34 3.98 1 5 C0.67 3.35 0.34 1.7 0 0 Z " fill="#1E1D1C" transform="translate(1015,59)"/>
<path d="M0 0 C0.99 0.49 0.99 0.49 2 1 C1.34 2.32 0.68 3.64 0 5 C0 3.35 0 1.7 0 0 Z " fill="#070708" transform="translate(210,45)"/>
<path d="M0 0 C0.33 0 0.66 0 1 0 C1 1.98 1 3.96 1 6 C0.67 6 0.34 6 0 6 C0 4.02 0 2.04 0 0 Z " fill="#060707" transform="translate(999,15)"/>
<path d="M0 0 C1.65 0 3.3 0 5 0 C5 0.33 5 0.66 5 1 C3.35 1 1.7 1 0 1 C0 0.67 0 0.34 0 0 Z " fill="#0E100E" transform="translate(317,143)"/>
<path d="M0 0 C1.65 0 3.3 0 5 0 C5 0.33 5 0.66 5 1 C3.35 1 1.7 1 0 1 C0 0.67 0 0.34 0 0 Z " fill="#1C1D1B" transform="translate(452,44)"/>
<path d="M0 0 C1.65 0 3.3 0 5 0 C5 0.33 5 0.66 5 1 C3.35 1 1.7 1 0 1 C0 0.67 0 0.34 0 0 Z " fill="#1C1D1B" transform="translate(357,44)"/>
<path d="M0 0 C1.65 0 3.3 0 5 0 C5 0.33 5 0.66 5 1 C3.35 1 1.7 1 0 1 C0 0.67 0 0.34 0 0 Z " fill="#1A1B19" transform="translate(322,44)"/>
<path d="M0 0 C4 1 4 1 4 1 Z " fill="#1B1C1B" transform="translate(487,204)"/>
<path d="M0 0 C4 1 4 1 4 1 Z " fill="#0D0F0E" transform="translate(160,204)"/>
<path d="M0 0 C4 1 4 1 4 1 Z " fill="#2A2927" transform="translate(410,143)"/>
<path d="M0 0 C0.99 0.33 1.98 0.66 3 1 C2.01 1.33 1.02 1.66 0 2 C0 1.34 0 0.68 0 0 Z " fill="#0C0C0C" transform="translate(332,138)"/>
<path d="M0 0 C1 4 1 4 1 4 Z " fill="#000002" transform="translate(381,132)"/>
<path d="M0 0 C4 1 4 1 4 1 Z " fill="#111210" transform="translate(691,132)"/>
<path d="M0 0 C0.66 0.66 1.32 1.32 2 2 C1.01 1.67 0.02 1.34 -1 1 C-0.67 0.67 -0.34 0.34 0 0 Z " fill="#121213" transform="translate(703,126)"/>
<path d="M0 0 C1 4 1 4 1 4 Z " fill="#0F0E0F" transform="translate(348,116)"/>
<path d="M0 0 C1 4 1 4 1 4 Z " fill="#E9EBEA" transform="translate(474,110)"/>
<path d="M0 0 C1 4 1 4 1 4 Z " fill="#000202" transform="translate(276,90)"/>
<path d="M0 0 C0 3 0 3 0 3 Z " fill="#272625" transform="translate(1082,78)"/>
<path d="M0 0 C0 3 0 3 0 3 Z " fill="#2D2C2A" transform="translate(282,78)"/>
<path d="M0 0 C1 4 1 4 1 4 Z " fill="#302E2C" transform="translate(877,31)"/>
<path d="M0 0 C3 1 3 1 3 1 Z " fill="#000202" transform="translate(547,204)"/>
<path d="" fill="#FBFDFD" transform="translate(0,0)"/>
<path d="M0 0 C3 1 3 1 3 1 Z " fill="#FBFDFD" transform="translate(422,164)"/>
<path d="M0 0 C3 1 3 1 3 1 Z " fill="#FBFDFD" transform="translate(327,164)"/>
<path d="" fill="#302E2C" transform="translate(0,0)"/>
<path d="" fill="#252523" transform="translate(0,0)"/>
<path d="" fill="#252523" transform="translate(0,0)"/>
<path d="M0 0 C3 1 3 1 3 1 Z " fill="#FBFDFD" transform="translate(422,65)"/>
<path d="M0 0 C0.99 0.5 0.99 0.5 2 1 C1.01 1.5 1.01 1.5 0 2 C0 1.34 0 0.68 0 0 Z " fill="#FBFDFD" transform="translate(328,65)"/>
<path d="M0 0 C3 1 3 1 3 1 Z " fill="#0C0D0D" transform="translate(404,50)"/>
<path d="" fill="#000002" transform="translate(0,0)"/>
<path d="" fill="#252523" transform="translate(0,0)"/>
<path d="M0 0 C3 1 3 1 3 1 Z " fill="#FAFBFB" transform="translate(823,5)"/>
<path d="M0 0 C2 1 2 1 2 1 Z " fill="#000202" transform="translate(592,204)"/>
<path d="" fill="#121212" transform="translate(0,0)"/>
<path d="" fill="#FBFDFD" transform="translate(0,0)"/>
<path d="M0 0 C2 1 2 1 2 1 Z " fill="#FBFDFD" transform="translate(218,165)"/>
<path d="M0 0 C2 1 2 1 2 1 Z " fill="#FBFDFD" transform="translate(233,164)"/>
<path d="" fill="#FBFDFD" transform="translate(0,0)"/>
<path d="" fill="#000202" transform="translate(0,0)"/>
<path d="M0 0 C2 1 2 1 2 1 Z " fill="#DEDFDE" transform="translate(729,148)"/>
<path d="" fill="#090909" transform="translate(0,0)"/>
<path d="M0 0 C2 1 2 1 2 1 Z " fill="#000202" transform="translate(415,144)"/>
<path d="" fill="#2A2927" transform="translate(0,0)"/>
<path d="" fill="#1E1D1D" transform="translate(0,0)"/>
<path d="" fill="#161614" transform="translate(0,0)"/>
<path d="" fill="#FBFDFD" transform="translate(0,0)"/>
<path d="" fill="#000002" transform="translate(0,0)"/>
<path d="" fill="#000002" transform="translate(0,0)"/>
<path d="" fill="#FBFDFD" transform="translate(0,0)"/>
<path d="" fill="#000202" transform="translate(0,0)"/>
<path d="M0 0 C2 1 2 1 2 1 Z " fill="#212220" transform="translate(310,50)"/>
<path d="" fill="#FBFDFD" transform="translate(0,0)"/>
<path d="" fill="#000002" transform="translate(0,0)"/>
<path d="" fill="#121212" transform="translate(0,0)"/>
<path d="" fill="#121212" transform="translate(0,0)"/>
<path d="" fill="#0D0D0D" transform="translate(0,0)"/>
<path d="" fill="#1A1B19" transform="translate(0,0)"/>
<path d="" fill="#302E2C" transform="translate(0,0)"/>
<path d="" fill="#FBFDFD" transform="translate(0,0)"/>
<path d="" fill="#3C3B38" transform="translate(0,0)"/>
<path d="" fill="#FBFDFD" transform="translate(0,0)"/>
<path d="" fill="#FBFDFD" transform="translate(0,0)"/>
<path d="" fill="#D8D7D5" transform="translate(0,0)"/>
<path d="" fill="#FBFDFD" transform="translate(0,0)"/>
<path d="" fill="#252523" transform="translate(0,0)"/>
<path d="" fill="#FBFDFD" transform="translate(0,0)"/>
<path d="" fill="#3C3B38" transform="translate(0,0)"/>
<path d="" fill="#FBFDFD" transform="translate(0,0)"/>
<path d="" fill="#252523" transform="translate(0,0)"/>
<path d="" fill="#1A1B19" transform="translate(0,0)"/>
<path d="" fill="#1A1B19" transform="translate(0,0)"/>
<path d="" fill="#252523" transform="translate(0,0)"/>
<path d="" fill="#E0E0DE" transform="translate(0,0)"/>
<path d="" fill="#252523" transform="translate(0,0)"/>
<path d="" fill="#FBFDFD" transform="translate(0,0)"/>
<path d="" fill="#FBFDFD" transform="translate(0,0)"/>
<path d="" fill="#1A1B19" transform="translate(0,0)"/>
<path d="" fill="#EAEAEA" transform="translate(0,0)"/>
<path d="" fill="#FBFDFD" transform="translate(0,0)"/>
<path d="" fill="#131210" transform="translate(0,0)"/>
<path d="" fill="#C2C1BF" transform="translate(0,0)"/>
<path d="" fill="#E0E0DE" transform="translate(0,0)"/>
<path d="" fill="#000202" transform="translate(0,0)"/>
<path d="" fill="#FBFDFD" transform="translate(0,0)"/>
<path d="" fill="#131210" transform="translate(0,0)"/>
<path d="" fill="#4A4946" transform="translate(0,0)"/>
<path d="" fill="#FBFDFD" transform="translate(0,0)"/>
<path d="" fill="#FBFDFD" transform="translate(0,0)"/>
<path d="" fill="#C2C1BF" transform="translate(0,0)"/>
<path d="" fill="#E0E0DE" transform="translate(0,0)"/>
<path d="" fill="#1A1B19" transform="translate(0,0)"/>
<path d="" fill="#252523" transform="translate(0,0)"/>
<path d="" fill="#060A08" transform="translate(0,0)"/>
<path d="" fill="#FBFDFD" transform="translate(0,0)"/>
<path d="" fill="#FBFDFD" transform="translate(0,0)"/>
<path d="" fill="#FBFDFD" transform="translate(0,0)"/>
<path d="" fill="#F1F1F1" transform="translate(0,0)"/>
<path d="" fill="#000002" transform="translate(0,0)"/>
<path d="" fill="#1A1B19" transform="translate(0,0)"/>
<path d="" fill="#302E2C" transform="translate(0,0)"/>
<path d="" fill="#1A1B19" transform="translate(0,0)"/>
<path d="" fill="#131210" transform="translate(0,0)"/>
<path d="" fill="#FBFDFD" transform="translate(0,0)"/>
<path d="" fill="#000002" transform="translate(0,0)"/>
<path d="" fill="#E0E0DE" transform="translate(0,0)"/>
<path d="" fill="#252523" transform="translate(0,0)"/>
<path d="" fill="#FBFDFD" transform="translate(0,0)"/>
<path d="" fill="#FBFDFD" transform="translate(0,0)"/>
<path d="" fill="#FBFDFD" transform="translate(0,0)"/>
<path d="" fill="#FBFDFD" transform="translate(0,0)"/>
<path d="" fill="#FBFDFD" transform="translate(0,0)"/>
<path d="" fill="#FBFDFD" transform="translate(0,0)"/>
<path d="" fill="#FBFDFD" transform="translate(0,0)"/>
<path d="" fill="#FBFDFD" transform="translate(0,0)"/>
<path d="" fill="#FBFDFD" transform="translate(0,0)"/>
<path d="" fill="#000002" transform="translate(0,0)"/>
</svg>
