<svg width="392" height="314" viewBox="0 0 392 314" fill="none" xmlns="http://www.w3.org/2000/svg">
<g style="mix-blend-mode:darken" opacity="0.3">
<path d="M-59.1991 308.447H-19.98C-13.3855 308.715 -6.91406 306.608 -1.74583 302.509C3.4224 298.41 6.94312 292.593 8.17428 286.118L71.029 22.1664C75.0262 7.87842 69.1752 0.0113263 54.8663 0.0113263H-54.3329C-60.8301 -0.175338 -67.1822 1.95037 -72.2547 6.00879C-77.3272 10.0672 -80.7897 15.794 -82.0237 22.1664L-87.8168 44.7842C-91.814 59.0722 -85.4996 66.9393 -71.6542 66.9393H-24.4986L-75.8252 286.292C-79.3589 300.58 -73.0445 308.447 -59.1991 308.447Z" fill="#CA0629"/>
<path fill-rule="evenodd" clip-rule="evenodd" d="M376.729 314C468.607 314 543.569 234.23 552.375 127.215C558.573 52.015 518.254 3.13502 450.764 3.13502C375.049 3.13502 310.398 57.7996 285.372 137.338C290.052 105.072 300.574 73.9249 316.423 45.4205C299.102 18.5799 269.789 3.13502 231.902 3.13502C140.488 3.13502 65.0622 82.9048 56.2567 189.92C50.1161 264.657 90.8413 314 157.809 314C181.869 313.738 205.576 308.186 227.243 297.739C248.91 287.291 268.005 272.204 283.171 253.551C301.309 231.914 314.938 206.879 323.259 179.913C318.599 212.06 308.158 243.102 292.44 271.541C309.877 298.382 339.132 314 376.729 314ZM139.974 183.672C144.898 123.744 177.339 72.087 214.762 72.087C237.818 72.087 252.938 96.3245 250.042 133.404C244.944 194.258 212.618 244.989 174.732 244.989C152.023 244.989 136.903 221.041 139.974 183.672ZM358.826 183.672C363.751 123.744 396.192 72.087 433.615 72.087C456.729 72.087 471.791 96.3245 468.895 133.404C463.797 194.258 431.471 244.989 393.585 244.989C370.876 244.989 355.756 221.041 358.826 183.672Z" fill="#CA0629"/>
</g>
</svg>
